<?xml version="1.0" encoding="utf-8"?>
<!-- Generator: Adobe Illustrator 15.1.0, SVG Export Plug-In . SVG Version: 6.00 Build 0)  -->
<!DOCTYPE svg PUBLIC "-//W3C//DTD SVG 1.1//EN" "http://www.w3.org/Graphics/SVG/1.1/DTD/svg11.dtd">
<svg version="1.1" id="Layer_1" xmlns="http://www.w3.org/2000/svg" xmlns:xlink="http://www.w3.org/1999/xlink" x="0px" y="0px"
	 width="800px" height="800px" viewBox="0 0 800 800" enable-background="new 0 0 800 800" xml:space="preserve">
<g opacity="0.33">
	<defs>
		<rect id="SVGID_1_" opacity="0.33" width="800" height="800"/>
	</defs>
	<clipPath id="SVGID_2_">
		<use xlink:href="#SVGID_1_"  overflow="visible"/>
	</clipPath>
	<g clip-path="url(#SVGID_2_)">
		<polygon fill="none" stroke="#808080" stroke-width="0.75" stroke-miterlimit="10" points="-56.507,99.885 -88.011,45.318 
			-56.507,-9.248 6.501,-9.248 38.005,45.318 6.501,99.885 		"/>
		<polygon fill="none" stroke="#808080" stroke-width="0.75" stroke-miterlimit="10" points="37.581,45.318 6.077,-9.248 
			37.581,-63.814 100.589,-63.814 132.093,-9.248 100.589,45.318 		"/>
		<polygon fill="none" stroke="#808080" stroke-width="0.75" stroke-miterlimit="10" points="37.581,154.451 6.077,99.885 
			37.581,45.318 100.589,45.318 132.093,99.885 100.589,154.451 		"/>
		<polygon fill="none" stroke="#808080" stroke-width="0.75" stroke-miterlimit="10" points="37.581,263.584 6.077,209.018 
			37.581,154.451 100.589,154.451 132.093,209.018 100.589,263.584 		"/>
		<polygon fill="none" stroke="#808080" stroke-width="0.75" stroke-miterlimit="10" points="37.581,372.717 6.077,318.15 
			37.581,263.584 100.589,263.584 132.093,318.15 100.589,372.717 		"/>
		<polygon fill="none" stroke="#808080" stroke-width="0.75" stroke-miterlimit="10" points="37.581,481.85 6.077,427.283 
			37.581,372.717 100.589,372.717 132.093,427.283 100.589,481.85 		"/>
		<polygon fill="none" stroke="#808080" stroke-width="0.75" stroke-miterlimit="10" points="37.581,590.982 6.077,536.416 
			37.581,481.85 100.589,481.85 132.093,536.416 100.589,590.982 		"/>
		<polygon fill="none" stroke="#808080" stroke-width="0.75" stroke-miterlimit="10" points="37.581,700.115 6.077,645.549 
			37.581,590.982 100.589,590.982 132.093,645.549 100.589,700.115 		"/>
		<polygon fill="none" stroke="#808080" stroke-width="0.75" stroke-miterlimit="10" points="37.581,809.248 6.077,754.682 
			37.581,700.115 100.589,700.115 132.093,754.682 100.589,809.248 		"/>
		<polygon fill="none" stroke="#808080" stroke-width="0.75" stroke-miterlimit="10" points="-56.507,209.018 -88.011,154.451 
			-56.507,99.885 6.501,99.885 38.005,154.451 6.501,209.018 		"/>
		<polygon fill="none" stroke="#808080" stroke-width="0.75" stroke-miterlimit="10" points="-56.507,318.15 -88.011,263.584 
			-56.507,209.018 6.501,209.018 38.005,263.584 6.501,318.15 		"/>
		<polygon fill="none" stroke="#808080" stroke-width="0.75" stroke-miterlimit="10" points="-56.507,427.283 -88.011,372.717 
			-56.507,318.15 6.501,318.15 38.005,372.717 6.501,427.283 		"/>
		<polygon fill="none" stroke="#808080" stroke-width="0.75" stroke-miterlimit="10" points="-56.507,536.416 -88.011,481.85 
			-56.507,427.283 6.501,427.283 38.005,481.85 6.501,536.416 		"/>
		<polygon fill="none" stroke="#808080" stroke-width="0.75" stroke-miterlimit="10" points="-56.507,645.549 -88.011,590.982 
			-56.507,536.416 6.501,536.416 38.005,590.982 6.501,645.549 		"/>
		<polygon fill="none" stroke="#808080" stroke-width="0.75" stroke-miterlimit="10" points="-56.507,754.682 -88.011,700.115 
			-56.507,645.549 6.501,645.549 38.005,700.115 6.501,754.682 		"/>
		<polygon fill="none" stroke="#808080" stroke-width="0.75" stroke-miterlimit="10" points="-56.507,863.814 -88.011,809.248 
			-56.507,754.682 6.501,754.682 38.005,809.248 6.501,863.814 		"/>
		<polygon fill="none" stroke="#808080" stroke-width="0.75" stroke-miterlimit="10" points="132.473,99.885 100.969,45.318 
			132.473,-9.248 195.48,-9.248 226.984,45.318 195.48,99.885 		"/>
		<polygon fill="none" stroke="#808080" stroke-width="0.75" stroke-miterlimit="10" points="226.561,45.318 195.057,-9.248 
			226.561,-63.814 289.568,-63.814 321.072,-9.248 289.568,45.318 		"/>
		<polygon fill="none" stroke="#808080" stroke-width="0.75" stroke-miterlimit="10" points="226.561,154.451 195.057,99.885 
			226.561,45.318 289.568,45.318 321.072,99.885 289.568,154.451 		"/>
		<polygon fill="none" stroke="#808080" stroke-width="0.75" stroke-miterlimit="10" points="226.561,263.584 195.057,209.018 
			226.561,154.451 289.568,154.451 321.072,209.018 289.568,263.584 		"/>
		<polygon fill="none" stroke="#808080" stroke-width="0.75" stroke-miterlimit="10" points="226.561,372.717 195.057,318.15 
			226.561,263.584 289.568,263.584 321.072,318.15 289.568,372.717 		"/>
		<polygon fill="none" stroke="#808080" stroke-width="0.75" stroke-miterlimit="10" points="226.561,481.85 195.057,427.283 
			226.561,372.717 289.568,372.717 321.072,427.283 289.568,481.85 		"/>
		<polygon fill="none" stroke="#808080" stroke-width="0.75" stroke-miterlimit="10" points="226.561,590.982 195.057,536.416 
			226.561,481.85 289.568,481.85 321.072,536.416 289.568,590.982 		"/>
		<polygon fill="none" stroke="#808080" stroke-width="0.75" stroke-miterlimit="10" points="226.561,700.115 195.057,645.549 
			226.561,590.982 289.568,590.982 321.072,645.549 289.568,700.115 		"/>
		<polygon fill="none" stroke="#808080" stroke-width="0.75" stroke-miterlimit="10" points="226.561,809.248 195.057,754.682 
			226.561,700.115 289.568,700.115 321.072,754.682 289.568,809.248 		"/>
		<polygon fill="none" stroke="#808080" stroke-width="0.75" stroke-miterlimit="10" points="132.473,209.018 100.969,154.451 
			132.473,99.885 195.48,99.885 226.984,154.451 195.48,209.018 		"/>
		<polygon fill="none" stroke="#808080" stroke-width="0.75" stroke-miterlimit="10" points="132.473,318.15 100.969,263.584 
			132.473,209.018 195.48,209.018 226.984,263.584 195.48,318.15 		"/>
		<polygon fill="none" stroke="#808080" stroke-width="0.75" stroke-miterlimit="10" points="132.473,427.283 100.969,372.717 
			132.473,318.15 195.48,318.15 226.984,372.717 195.48,427.283 		"/>
		<polygon fill="none" stroke="#808080" stroke-width="0.75" stroke-miterlimit="10" points="132.473,536.416 100.969,481.85 
			132.473,427.283 195.48,427.283 226.984,481.85 195.48,536.416 		"/>
		<polygon fill="none" stroke="#808080" stroke-width="0.75" stroke-miterlimit="10" points="132.473,645.549 100.969,590.982 
			132.473,536.416 195.48,536.416 226.984,590.982 195.48,645.549 		"/>
		<polygon fill="none" stroke="#808080" stroke-width="0.75" stroke-miterlimit="10" points="132.473,754.682 100.969,700.115 
			132.473,645.549 195.48,645.549 226.984,700.115 195.48,754.682 		"/>
		<polygon fill="none" stroke="#808080" stroke-width="0.75" stroke-miterlimit="10" points="132.473,863.814 100.969,809.248 
			132.473,754.682 195.48,754.682 226.984,809.248 195.48,863.814 		"/>
		<polygon fill="none" stroke="#808080" stroke-width="0.75" stroke-miterlimit="10" points="321.452,99.885 289.948,45.318 
			321.452,-9.248 384.46,-9.248 415.964,45.318 384.46,99.885 		"/>
		<polygon fill="none" stroke="#808080" stroke-width="0.75" stroke-miterlimit="10" points="415.54,45.318 384.036,-9.248 
			415.54,-63.814 478.548,-63.814 510.052,-9.248 478.548,45.318 		"/>
		<polygon fill="none" stroke="#808080" stroke-width="0.75" stroke-miterlimit="10" points="415.54,154.451 384.036,99.885 
			415.54,45.318 478.548,45.318 510.052,99.885 478.548,154.451 		"/>
		<polygon fill="none" stroke="#808080" stroke-width="0.75" stroke-miterlimit="10" points="415.54,263.584 384.036,209.018 
			415.54,154.451 478.548,154.451 510.052,209.018 478.548,263.584 		"/>
		<polygon fill="none" stroke="#808080" stroke-width="0.75" stroke-miterlimit="10" points="415.54,372.717 384.036,318.15 
			415.54,263.584 478.548,263.584 510.052,318.15 478.548,372.717 		"/>
		<polygon fill="none" stroke="#808080" stroke-width="0.75" stroke-miterlimit="10" points="415.54,481.85 384.036,427.283 
			415.54,372.717 478.548,372.717 510.052,427.283 478.548,481.85 		"/>
		<polygon fill="none" stroke="#808080" stroke-width="0.75" stroke-miterlimit="10" points="415.54,590.982 384.036,536.416 
			415.54,481.85 478.548,481.85 510.052,536.416 478.548,590.982 		"/>
		<polygon fill="none" stroke="#808080" stroke-width="0.75" stroke-miterlimit="10" points="415.54,700.115 384.036,645.549 
			415.54,590.982 478.548,590.982 510.052,645.549 478.548,700.115 		"/>
		<polygon fill="none" stroke="#808080" stroke-width="0.75" stroke-miterlimit="10" points="415.54,809.248 384.036,754.682 
			415.54,700.115 478.548,700.115 510.052,754.682 478.548,809.248 		"/>
		<polygon fill="none" stroke="#808080" stroke-width="0.75" stroke-miterlimit="10" points="321.452,209.018 289.948,154.451 
			321.452,99.885 384.46,99.885 415.964,154.451 384.46,209.018 		"/>
		<polygon fill="none" stroke="#808080" stroke-width="0.75" stroke-miterlimit="10" points="321.452,318.15 289.948,263.584 
			321.452,209.018 384.46,209.018 415.964,263.584 384.46,318.15 		"/>
		<polygon fill="none" stroke="#808080" stroke-width="0.75" stroke-miterlimit="10" points="321.452,427.283 289.948,372.717 
			321.452,318.15 384.46,318.15 415.964,372.717 384.46,427.283 		"/>
		<polygon fill="none" stroke="#808080" stroke-width="0.75" stroke-miterlimit="10" points="321.452,536.416 289.948,481.85 
			321.452,427.283 384.46,427.283 415.964,481.85 384.46,536.416 		"/>
		<polygon fill="none" stroke="#808080" stroke-width="0.75" stroke-miterlimit="10" points="321.452,645.549 289.948,590.982 
			321.452,536.416 384.46,536.416 415.964,590.982 384.46,645.549 		"/>
		<polygon fill="none" stroke="#808080" stroke-width="0.75" stroke-miterlimit="10" points="321.452,754.682 289.948,700.115 
			321.452,645.549 384.46,645.549 415.964,700.115 384.46,754.682 		"/>
		<polygon fill="none" stroke="#808080" stroke-width="0.75" stroke-miterlimit="10" points="321.452,863.814 289.948,809.248 
			321.452,754.682 384.46,754.682 415.964,809.248 384.46,863.814 		"/>
		<polygon fill="none" stroke="#808080" stroke-width="0.75" stroke-miterlimit="10" points="510.432,99.885 478.928,45.318 
			510.432,-9.248 573.439,-9.248 604.943,45.318 573.439,99.885 		"/>
		<polygon fill="none" stroke="#808080" stroke-width="0.75" stroke-miterlimit="10" points="604.52,45.318 573.016,-9.248 
			604.52,-63.814 667.527,-63.814 699.031,-9.248 667.527,45.318 		"/>
		<polygon fill="none" stroke="#808080" stroke-width="0.75" stroke-miterlimit="10" points="604.52,154.451 573.016,99.885 
			604.52,45.318 667.527,45.318 699.031,99.885 667.527,154.451 		"/>
		<polygon fill="none" stroke="#808080" stroke-width="0.75" stroke-miterlimit="10" points="604.52,263.584 573.016,209.018 
			604.52,154.451 667.527,154.451 699.031,209.018 667.527,263.584 		"/>
		<polygon fill="none" stroke="#808080" stroke-width="0.75" stroke-miterlimit="10" points="604.52,372.717 573.016,318.15 
			604.52,263.584 667.527,263.584 699.031,318.15 667.527,372.717 		"/>
		<polygon fill="none" stroke="#808080" stroke-width="0.75" stroke-miterlimit="10" points="604.52,481.85 573.016,427.283 
			604.52,372.717 667.527,372.717 699.031,427.283 667.527,481.85 		"/>
		<polygon fill="none" stroke="#808080" stroke-width="0.75" stroke-miterlimit="10" points="604.52,590.982 573.016,536.416 
			604.52,481.85 667.527,481.85 699.031,536.416 667.527,590.982 		"/>
		<polygon fill="none" stroke="#808080" stroke-width="0.75" stroke-miterlimit="10" points="604.52,700.115 573.016,645.549 
			604.52,590.982 667.527,590.982 699.031,645.549 667.527,700.115 		"/>
		<polygon fill="none" stroke="#808080" stroke-width="0.75" stroke-miterlimit="10" points="604.52,809.248 573.016,754.682 
			604.52,700.115 667.527,700.115 699.031,754.682 667.527,809.248 		"/>
		<polygon fill="none" stroke="#808080" stroke-width="0.75" stroke-miterlimit="10" points="510.432,209.018 478.928,154.451 
			510.432,99.885 573.439,99.885 604.943,154.451 573.439,209.018 		"/>
		<polygon fill="none" stroke="#808080" stroke-width="0.75" stroke-miterlimit="10" points="510.432,318.15 478.928,263.584 
			510.432,209.018 573.439,209.018 604.943,263.584 573.439,318.15 		"/>
		<polygon fill="none" stroke="#808080" stroke-width="0.75" stroke-miterlimit="10" points="510.432,427.283 478.928,372.717 
			510.432,318.15 573.439,318.15 604.943,372.717 573.439,427.283 		"/>
		<polygon fill="none" stroke="#808080" stroke-width="0.75" stroke-miterlimit="10" points="510.432,536.416 478.928,481.85 
			510.432,427.283 573.439,427.283 604.943,481.85 573.439,536.416 		"/>
		<polygon fill="none" stroke="#808080" stroke-width="0.75" stroke-miterlimit="10" points="510.432,645.549 478.928,590.982 
			510.432,536.416 573.439,536.416 604.943,590.982 573.439,645.549 		"/>
		<polygon fill="none" stroke="#808080" stroke-width="0.75" stroke-miterlimit="10" points="510.432,754.682 478.928,700.115 
			510.432,645.549 573.439,645.549 604.943,700.115 573.439,754.682 		"/>
		<polygon fill="none" stroke="#808080" stroke-width="0.75" stroke-miterlimit="10" points="510.432,863.814 478.928,809.248 
			510.432,754.682 573.439,754.682 604.943,809.248 573.439,863.814 		"/>
		<polygon fill="none" stroke="#808080" stroke-width="0.75" stroke-miterlimit="10" points="699.411,99.885 667.907,45.318 
			699.411,-9.248 762.419,-9.248 793.923,45.318 762.419,99.885 		"/>
		<polygon fill="none" stroke="#808080" stroke-width="0.75" stroke-miterlimit="10" points="793.499,45.318 761.995,-9.248 
			793.499,-63.814 856.507,-63.814 888.011,-9.248 856.507,45.318 		"/>
		<polygon fill="none" stroke="#808080" stroke-width="0.75" stroke-miterlimit="10" points="793.499,154.451 761.995,99.885 
			793.499,45.318 856.507,45.318 888.011,99.885 856.507,154.451 		"/>
		<polygon fill="none" stroke="#808080" stroke-width="0.75" stroke-miterlimit="10" points="793.499,263.584 761.995,209.018 
			793.499,154.451 856.507,154.451 888.011,209.018 856.507,263.584 		"/>
		<polygon fill="none" stroke="#808080" stroke-width="0.75" stroke-miterlimit="10" points="793.499,372.717 761.995,318.15 
			793.499,263.584 856.507,263.584 888.011,318.15 856.507,372.717 		"/>
		<polygon fill="none" stroke="#808080" stroke-width="0.75" stroke-miterlimit="10" points="793.499,481.85 761.995,427.283 
			793.499,372.717 856.507,372.717 888.011,427.283 856.507,481.85 		"/>
		<polygon fill="none" stroke="#808080" stroke-width="0.75" stroke-miterlimit="10" points="793.499,590.982 761.995,536.416 
			793.499,481.85 856.507,481.85 888.011,536.416 856.507,590.982 		"/>
		<polygon fill="none" stroke="#808080" stroke-width="0.75" stroke-miterlimit="10" points="793.499,700.115 761.995,645.549 
			793.499,590.982 856.507,590.982 888.011,645.549 856.507,700.115 		"/>
		<polygon fill="none" stroke="#808080" stroke-width="0.75" stroke-miterlimit="10" points="793.499,809.248 761.995,754.682 
			793.499,700.115 856.507,700.115 888.011,754.682 856.507,809.248 		"/>
		<polygon fill="none" stroke="#808080" stroke-width="0.75" stroke-miterlimit="10" points="699.411,209.018 667.907,154.451 
			699.411,99.885 762.419,99.885 793.923,154.451 762.419,209.018 		"/>
		<polygon fill="none" stroke="#808080" stroke-width="0.75" stroke-miterlimit="10" points="699.411,318.15 667.907,263.584 
			699.411,209.018 762.419,209.018 793.923,263.584 762.419,318.15 		"/>
		<polygon fill="none" stroke="#808080" stroke-width="0.75" stroke-miterlimit="10" points="699.411,427.283 667.907,372.717 
			699.411,318.15 762.419,318.15 793.923,372.717 762.419,427.283 		"/>
		<polygon fill="none" stroke="#808080" stroke-width="0.75" stroke-miterlimit="10" points="699.411,536.416 667.907,481.85 
			699.411,427.283 762.419,427.283 793.923,481.85 762.419,536.416 		"/>
		<polygon fill="none" stroke="#808080" stroke-width="0.75" stroke-miterlimit="10" points="699.411,645.549 667.907,590.982 
			699.411,536.416 762.419,536.416 793.923,590.982 762.419,645.549 		"/>
		<polygon fill="none" stroke="#808080" stroke-width="0.75" stroke-miterlimit="10" points="699.411,754.682 667.907,700.115 
			699.411,645.549 762.419,645.549 793.923,700.115 762.419,754.682 		"/>
		<polygon fill="none" stroke="#808080" stroke-width="0.75" stroke-miterlimit="10" points="699.411,863.814 667.907,809.248 
			699.411,754.682 762.419,754.682 793.923,809.248 762.419,863.814 		"/>
	</g>
	<g clip-path="url(#SVGID_2_)">
		<polygon fill="none" stroke="#CCCCCC" stroke-width="0.75" stroke-miterlimit="10" points="-182.522,99.885 -214.026,45.318 
			-182.522,-9.248 -119.515,-9.248 -88.011,45.318 -119.515,99.885 		"/>
		<polygon fill="none" stroke="#CCCCCC" stroke-width="0.75" stroke-miterlimit="10" points="-88.435,45.318 -119.938,-9.248 
			-88.435,-63.814 -25.427,-63.814 6.077,-9.248 -25.427,45.318 		"/>
		<polygon fill="none" stroke="#CCCCCC" stroke-width="0.75" stroke-miterlimit="10" points="-88.435,154.451 -119.938,99.885 
			-88.435,45.318 -25.427,45.318 6.077,99.885 -25.427,154.451 		"/>
		<polygon fill="none" stroke="#CCCCCC" stroke-width="0.75" stroke-miterlimit="10" points="-88.435,263.584 -119.938,209.018 
			-88.435,154.451 -25.427,154.451 6.077,209.018 -25.427,263.584 		"/>
		<polygon fill="none" stroke="#CCCCCC" stroke-width="0.75" stroke-miterlimit="10" points="-88.435,372.717 -119.938,318.15 
			-88.435,263.584 -25.427,263.584 6.077,318.15 -25.427,372.717 		"/>
		<polygon fill="none" stroke="#CCCCCC" stroke-width="0.75" stroke-miterlimit="10" points="-88.435,481.85 -119.938,427.283 
			-88.435,372.717 -25.427,372.717 6.077,427.283 -25.427,481.85 		"/>
		<polygon fill="none" stroke="#CCCCCC" stroke-width="0.75" stroke-miterlimit="10" points="-88.435,590.982 -119.938,536.416 
			-88.435,481.85 -25.427,481.85 6.077,536.416 -25.427,590.982 		"/>
		<polygon fill="none" stroke="#CCCCCC" stroke-width="0.75" stroke-miterlimit="10" points="-88.435,700.115 -119.938,645.549 
			-88.435,590.982 -25.427,590.982 6.077,645.549 -25.427,700.115 		"/>
		<polygon fill="none" stroke="#CCCCCC" stroke-width="0.75" stroke-miterlimit="10" points="-88.435,809.248 -119.938,754.682 
			-88.435,700.115 -25.427,700.115 6.077,754.682 -25.427,809.248 		"/>
		<polygon fill="none" stroke="#CCCCCC" stroke-width="0.75" stroke-miterlimit="10" points="-182.522,209.018 -214.026,154.451 
			-182.522,99.885 -119.515,99.885 -88.011,154.451 -119.515,209.018 		"/>
		<polygon fill="none" stroke="#CCCCCC" stroke-width="0.75" stroke-miterlimit="10" points="-182.522,318.15 -214.026,263.584 
			-182.522,209.018 -119.515,209.018 -88.011,263.584 -119.515,318.15 		"/>
		<polygon fill="none" stroke="#CCCCCC" stroke-width="0.75" stroke-miterlimit="10" points="-182.522,427.283 -214.026,372.717 
			-182.522,318.15 -119.515,318.15 -88.011,372.717 -119.515,427.283 		"/>
		<polygon fill="none" stroke="#CCCCCC" stroke-width="0.75" stroke-miterlimit="10" points="-182.522,536.416 -214.026,481.85 
			-182.522,427.283 -119.515,427.283 -88.011,481.85 -119.515,536.416 		"/>
		<polygon fill="none" stroke="#CCCCCC" stroke-width="0.75" stroke-miterlimit="10" points="-182.522,645.549 -214.026,590.982 
			-182.522,536.416 -119.515,536.416 -88.011,590.982 -119.515,645.549 		"/>
		<polygon fill="none" stroke="#CCCCCC" stroke-width="0.75" stroke-miterlimit="10" points="-182.522,754.682 -214.026,700.115 
			-182.522,645.549 -119.515,645.549 -88.011,700.115 -119.515,754.682 		"/>
		<polygon fill="none" stroke="#CCCCCC" stroke-width="0.75" stroke-miterlimit="10" points="-182.522,863.814 -214.026,809.248 
			-182.522,754.682 -119.515,754.682 -88.011,809.248 -119.515,863.814 		"/>
		<polygon fill="none" stroke="#CCCCCC" stroke-width="0.75" stroke-miterlimit="10" points="6.457,99.885 -25.047,45.318 
			6.457,-9.248 69.465,-9.248 100.969,45.318 69.465,99.885 		"/>
		<polygon fill="none" stroke="#CCCCCC" stroke-width="0.75" stroke-miterlimit="10" points="100.545,45.318 69.041,-9.248 
			100.545,-63.814 163.553,-63.814 195.057,-9.248 163.553,45.318 		"/>
		<polygon fill="none" stroke="#CCCCCC" stroke-width="0.75" stroke-miterlimit="10" points="100.545,154.451 69.041,99.885 
			100.545,45.318 163.553,45.318 195.057,99.885 163.553,154.451 		"/>
		<polygon fill="none" stroke="#CCCCCC" stroke-width="0.75" stroke-miterlimit="10" points="100.545,263.584 69.041,209.018 
			100.545,154.451 163.553,154.451 195.057,209.018 163.553,263.584 		"/>
		<polygon fill="none" stroke="#CCCCCC" stroke-width="0.75" stroke-miterlimit="10" points="100.545,372.717 69.041,318.15 
			100.545,263.584 163.553,263.584 195.057,318.15 163.553,372.717 		"/>
		<polygon fill="none" stroke="#CCCCCC" stroke-width="0.75" stroke-miterlimit="10" points="100.545,481.85 69.041,427.283 
			100.545,372.717 163.553,372.717 195.057,427.283 163.553,481.85 		"/>
		<polygon fill="none" stroke="#CCCCCC" stroke-width="0.75" stroke-miterlimit="10" points="100.545,590.982 69.041,536.416 
			100.545,481.85 163.553,481.85 195.057,536.416 163.553,590.982 		"/>
		<polygon fill="none" stroke="#CCCCCC" stroke-width="0.75" stroke-miterlimit="10" points="100.545,700.115 69.041,645.549 
			100.545,590.982 163.553,590.982 195.057,645.549 163.553,700.115 		"/>
		<polygon fill="none" stroke="#CCCCCC" stroke-width="0.75" stroke-miterlimit="10" points="100.545,809.248 69.041,754.682 
			100.545,700.115 163.553,700.115 195.057,754.682 163.553,809.248 		"/>
		<polygon fill="none" stroke="#CCCCCC" stroke-width="0.75" stroke-miterlimit="10" points="6.457,209.018 -25.047,154.451 
			6.457,99.885 69.465,99.885 100.969,154.451 69.465,209.018 		"/>
		<polygon fill="none" stroke="#CCCCCC" stroke-width="0.75" stroke-miterlimit="10" points="6.457,318.15 -25.047,263.584 
			6.457,209.018 69.465,209.018 100.969,263.584 69.465,318.15 		"/>
		<polygon fill="none" stroke="#CCCCCC" stroke-width="0.75" stroke-miterlimit="10" points="6.457,427.283 -25.047,372.717 
			6.457,318.15 69.465,318.15 100.969,372.717 69.465,427.283 		"/>
		<polygon fill="none" stroke="#CCCCCC" stroke-width="0.75" stroke-miterlimit="10" points="6.457,536.416 -25.047,481.85 
			6.457,427.283 69.465,427.283 100.969,481.85 69.465,536.416 		"/>
		<polygon fill="none" stroke="#CCCCCC" stroke-width="0.75" stroke-miterlimit="10" points="6.457,645.549 -25.047,590.982 
			6.457,536.416 69.465,536.416 100.969,590.982 69.465,645.549 		"/>
		<polygon fill="none" stroke="#CCCCCC" stroke-width="0.75" stroke-miterlimit="10" points="6.457,754.682 -25.047,700.115 
			6.457,645.549 69.465,645.549 100.969,700.115 69.465,754.682 		"/>
		<polygon fill="none" stroke="#CCCCCC" stroke-width="0.75" stroke-miterlimit="10" points="6.457,863.814 -25.047,809.248 
			6.457,754.682 69.465,754.682 100.969,809.248 69.465,863.814 		"/>
		<polygon fill="none" stroke="#CCCCCC" stroke-width="0.75" stroke-miterlimit="10" points="195.437,99.885 163.933,45.318 
			195.437,-9.248 258.444,-9.248 289.948,45.318 258.444,99.885 		"/>
		<polygon fill="none" stroke="#CCCCCC" stroke-width="0.75" stroke-miterlimit="10" points="289.524,45.318 258.021,-9.248 
			289.524,-63.814 352.532,-63.814 384.036,-9.248 352.532,45.318 		"/>
		<polygon fill="none" stroke="#CCCCCC" stroke-width="0.75" stroke-miterlimit="10" points="289.524,154.451 258.021,99.885 
			289.524,45.318 352.532,45.318 384.036,99.885 352.532,154.451 		"/>
		<polygon fill="none" stroke="#CCCCCC" stroke-width="0.75" stroke-miterlimit="10" points="289.524,263.584 258.021,209.018 
			289.524,154.451 352.532,154.451 384.036,209.018 352.532,263.584 		"/>
		<polygon fill="none" stroke="#CCCCCC" stroke-width="0.75" stroke-miterlimit="10" points="289.524,372.717 258.021,318.15 
			289.524,263.584 352.532,263.584 384.036,318.15 352.532,372.717 		"/>
		<polygon fill="none" stroke="#CCCCCC" stroke-width="0.75" stroke-miterlimit="10" points="289.524,481.85 258.021,427.283 
			289.524,372.717 352.532,372.717 384.036,427.283 352.532,481.85 		"/>
		<polygon fill="none" stroke="#CCCCCC" stroke-width="0.75" stroke-miterlimit="10" points="289.524,590.982 258.021,536.416 
			289.524,481.85 352.532,481.85 384.036,536.416 352.532,590.982 		"/>
		<polygon fill="none" stroke="#CCCCCC" stroke-width="0.75" stroke-miterlimit="10" points="289.524,700.115 258.021,645.549 
			289.524,590.982 352.532,590.982 384.036,645.549 352.532,700.115 		"/>
		<polygon fill="none" stroke="#CCCCCC" stroke-width="0.75" stroke-miterlimit="10" points="289.524,809.248 258.021,754.682 
			289.524,700.115 352.532,700.115 384.036,754.682 352.532,809.248 		"/>
		<polygon fill="none" stroke="#CCCCCC" stroke-width="0.75" stroke-miterlimit="10" points="195.437,209.018 163.933,154.451 
			195.437,99.885 258.444,99.885 289.948,154.451 258.444,209.018 		"/>
		<polygon fill="none" stroke="#CCCCCC" stroke-width="0.75" stroke-miterlimit="10" points="195.437,318.15 163.933,263.584 
			195.437,209.018 258.444,209.018 289.948,263.584 258.444,318.15 		"/>
		<polygon fill="none" stroke="#CCCCCC" stroke-width="0.75" stroke-miterlimit="10" points="195.437,427.283 163.933,372.717 
			195.437,318.15 258.444,318.15 289.948,372.717 258.444,427.283 		"/>
		<polygon fill="none" stroke="#CCCCCC" stroke-width="0.75" stroke-miterlimit="10" points="195.437,536.416 163.933,481.85 
			195.437,427.283 258.444,427.283 289.948,481.85 258.444,536.416 		"/>
		<polygon fill="none" stroke="#CCCCCC" stroke-width="0.75" stroke-miterlimit="10" points="195.437,645.549 163.933,590.982 
			195.437,536.416 258.444,536.416 289.948,590.982 258.444,645.549 		"/>
		<polygon fill="none" stroke="#CCCCCC" stroke-width="0.75" stroke-miterlimit="10" points="195.437,754.682 163.933,700.115 
			195.437,645.549 258.444,645.549 289.948,700.115 258.444,754.682 		"/>
		<polygon fill="none" stroke="#CCCCCC" stroke-width="0.75" stroke-miterlimit="10" points="195.437,863.814 163.933,809.248 
			195.437,754.682 258.444,754.682 289.948,809.248 258.444,863.814 		"/>
		<polygon fill="none" stroke="#CCCCCC" stroke-width="0.75" stroke-miterlimit="10" points="384.416,99.885 352.912,45.318 
			384.416,-9.248 447.424,-9.248 478.928,45.318 447.424,99.885 		"/>
		<polygon fill="none" stroke="#CCCCCC" stroke-width="0.75" stroke-miterlimit="10" points="478.504,45.318 447,-9.248 
			478.504,-63.814 541.512,-63.814 573.016,-9.248 541.512,45.318 		"/>
		<polygon fill="none" stroke="#CCCCCC" stroke-width="0.75" stroke-miterlimit="10" points="478.504,154.451 447,99.885 
			478.504,45.318 541.512,45.318 573.016,99.885 541.512,154.451 		"/>
		<polygon fill="none" stroke="#CCCCCC" stroke-width="0.75" stroke-miterlimit="10" points="478.504,263.584 447,209.018 
			478.504,154.451 541.512,154.451 573.016,209.018 541.512,263.584 		"/>
		<polygon fill="none" stroke="#CCCCCC" stroke-width="0.75" stroke-miterlimit="10" points="478.504,372.717 447,318.15 
			478.504,263.584 541.512,263.584 573.016,318.15 541.512,372.717 		"/>
		<polygon fill="none" stroke="#CCCCCC" stroke-width="0.75" stroke-miterlimit="10" points="478.504,481.85 447,427.283 
			478.504,372.717 541.512,372.717 573.016,427.283 541.512,481.85 		"/>
		<polygon fill="none" stroke="#CCCCCC" stroke-width="0.75" stroke-miterlimit="10" points="478.504,590.982 447,536.416 
			478.504,481.85 541.512,481.85 573.016,536.416 541.512,590.982 		"/>
		<polygon fill="none" stroke="#CCCCCC" stroke-width="0.75" stroke-miterlimit="10" points="478.504,700.115 447,645.549 
			478.504,590.982 541.512,590.982 573.016,645.549 541.512,700.115 		"/>
		<polygon fill="none" stroke="#CCCCCC" stroke-width="0.75" stroke-miterlimit="10" points="478.504,809.248 447,754.682 
			478.504,700.115 541.512,700.115 573.016,754.682 541.512,809.248 		"/>
		<polygon fill="none" stroke="#CCCCCC" stroke-width="0.75" stroke-miterlimit="10" points="384.416,209.018 352.912,154.451 
			384.416,99.885 447.424,99.885 478.928,154.451 447.424,209.018 		"/>
		<polygon fill="none" stroke="#CCCCCC" stroke-width="0.75" stroke-miterlimit="10" points="384.416,318.15 352.912,263.584 
			384.416,209.018 447.424,209.018 478.928,263.584 447.424,318.15 		"/>
		<polygon fill="none" stroke="#CCCCCC" stroke-width="0.75" stroke-miterlimit="10" points="384.416,427.283 352.912,372.717 
			384.416,318.15 447.424,318.15 478.928,372.717 447.424,427.283 		"/>
		<polygon fill="none" stroke="#CCCCCC" stroke-width="0.75" stroke-miterlimit="10" points="384.416,536.416 352.912,481.85 
			384.416,427.283 447.424,427.283 478.928,481.85 447.424,536.416 		"/>
		<polygon fill="none" stroke="#CCCCCC" stroke-width="0.75" stroke-miterlimit="10" points="384.416,645.549 352.912,590.982 
			384.416,536.416 447.424,536.416 478.928,590.982 447.424,645.549 		"/>
		<polygon fill="none" stroke="#CCCCCC" stroke-width="0.75" stroke-miterlimit="10" points="384.416,754.682 352.912,700.115 
			384.416,645.549 447.424,645.549 478.928,700.115 447.424,754.682 		"/>
		<polygon fill="none" stroke="#CCCCCC" stroke-width="0.75" stroke-miterlimit="10" points="384.416,863.814 352.912,809.248 
			384.416,754.682 447.424,754.682 478.928,809.248 447.424,863.814 		"/>
		<polygon fill="none" stroke="#CCCCCC" stroke-width="0.75" stroke-miterlimit="10" points="573.396,99.885 541.892,45.318 
			573.396,-9.248 636.403,-9.248 667.907,45.318 636.403,99.885 		"/>
		<polygon fill="none" stroke="#CCCCCC" stroke-width="0.75" stroke-miterlimit="10" points="667.483,45.318 635.979,-9.248 
			667.483,-63.814 730.491,-63.814 761.995,-9.248 730.491,45.318 		"/>
		<polygon fill="none" stroke="#CCCCCC" stroke-width="0.75" stroke-miterlimit="10" points="667.483,154.451 635.979,99.885 
			667.483,45.318 730.491,45.318 761.995,99.885 730.491,154.451 		"/>
		<polygon fill="none" stroke="#CCCCCC" stroke-width="0.75" stroke-miterlimit="10" points="667.483,263.584 635.979,209.018 
			667.483,154.451 730.491,154.451 761.995,209.018 730.491,263.584 		"/>
		<polygon fill="none" stroke="#CCCCCC" stroke-width="0.75" stroke-miterlimit="10" points="667.483,372.717 635.979,318.15 
			667.483,263.584 730.491,263.584 761.995,318.15 730.491,372.717 		"/>
		<polygon fill="none" stroke="#CCCCCC" stroke-width="0.75" stroke-miterlimit="10" points="667.483,481.85 635.979,427.283 
			667.483,372.717 730.491,372.717 761.995,427.283 730.491,481.85 		"/>
		<polygon fill="none" stroke="#CCCCCC" stroke-width="0.75" stroke-miterlimit="10" points="667.483,590.982 635.979,536.416 
			667.483,481.85 730.491,481.85 761.995,536.416 730.491,590.982 		"/>
		<polygon fill="none" stroke="#CCCCCC" stroke-width="0.75" stroke-miterlimit="10" points="667.483,700.115 635.979,645.549 
			667.483,590.982 730.491,590.982 761.995,645.549 730.491,700.115 		"/>
		<polygon fill="none" stroke="#CCCCCC" stroke-width="0.75" stroke-miterlimit="10" points="667.483,809.248 635.979,754.682 
			667.483,700.115 730.491,700.115 761.995,754.682 730.491,809.248 		"/>
		<polygon fill="none" stroke="#CCCCCC" stroke-width="0.75" stroke-miterlimit="10" points="573.396,209.018 541.892,154.451 
			573.396,99.885 636.403,99.885 667.907,154.451 636.403,209.018 		"/>
		<polygon fill="none" stroke="#CCCCCC" stroke-width="0.75" stroke-miterlimit="10" points="573.396,318.15 541.892,263.584 
			573.396,209.018 636.403,209.018 667.907,263.584 636.403,318.15 		"/>
		<polygon fill="none" stroke="#CCCCCC" stroke-width="0.75" stroke-miterlimit="10" points="573.396,427.283 541.892,372.717 
			573.396,318.15 636.403,318.15 667.907,372.717 636.403,427.283 		"/>
		<polygon fill="none" stroke="#CCCCCC" stroke-width="0.75" stroke-miterlimit="10" points="573.396,536.416 541.892,481.85 
			573.396,427.283 636.403,427.283 667.907,481.85 636.403,536.416 		"/>
		<polygon fill="none" stroke="#CCCCCC" stroke-width="0.75" stroke-miterlimit="10" points="573.396,645.549 541.892,590.982 
			573.396,536.416 636.403,536.416 667.907,590.982 636.403,645.549 		"/>
		<polygon fill="none" stroke="#CCCCCC" stroke-width="0.75" stroke-miterlimit="10" points="573.396,754.682 541.892,700.115 
			573.396,645.549 636.403,645.549 667.907,700.115 636.403,754.682 		"/>
		<polygon fill="none" stroke="#CCCCCC" stroke-width="0.75" stroke-miterlimit="10" points="573.396,863.814 541.892,809.248 
			573.396,754.682 636.403,754.682 667.907,809.248 636.403,863.814 		"/>
	</g>
	<g clip-path="url(#SVGID_2_)">
		<g>
			<path fill="#999999" d="M38.005,41.99c1.838,0,3.329,1.49,3.329,3.329s-1.49,3.329-3.329,3.329s-3.329-1.49-3.329-3.329
				S36.167,41.99,38.005,41.99 M38.005,40.99c-2.387,0-4.329,1.942-4.329,4.329s1.942,4.329,4.329,4.329s4.329-1.942,4.329-4.329
				S40.392,40.99,38.005,40.99L38.005,40.99z"/>
		</g>
		<g>
			<path fill="#999999" d="M100.969,41.99c1.838,0,3.329,1.49,3.329,3.329s-1.49,3.329-3.329,3.329s-3.329-1.49-3.329-3.329
				S99.13,41.99,100.969,41.99 M100.969,40.99c-2.387,0-4.329,1.942-4.329,4.329s1.942,4.329,4.329,4.329s4.329-1.942,4.329-4.329
				S103.355,40.99,100.969,40.99L100.969,40.99z"/>
		</g>
		<g>
			<path fill="#999999" d="M226.583,41.99c1.838,0,3.329,1.49,3.329,3.329s-1.49,3.329-3.329,3.329s-3.329-1.49-3.329-3.329
				S224.744,41.99,226.583,41.99 M226.583,40.99c-2.387,0-4.329,1.942-4.329,4.329s1.942,4.329,4.329,4.329s4.329-1.942,4.329-4.329
				S228.969,40.99,226.583,40.99L226.583,40.99z"/>
		</g>
		<g>
			<path fill="#999999" d="M289.546,41.99c1.838,0,3.329,1.49,3.329,3.329s-1.49,3.329-3.329,3.329s-3.329-1.49-3.329-3.329
				S287.708,41.99,289.546,41.99 M289.546,40.99c-2.387,0-4.329,1.942-4.329,4.329s1.942,4.329,4.329,4.329s4.329-1.942,4.329-4.329
				S291.933,40.99,289.546,40.99L289.546,40.99z"/>
		</g>
		<g>
			<path fill="#999999" d="M415.16,41.99c1.838,0,3.328,1.49,3.328,3.329s-1.49,3.329-3.328,3.329s-3.328-1.49-3.328-3.329
				S413.322,41.99,415.16,41.99 M415.16,40.99c-2.387,0-4.328,1.942-4.328,4.329s1.941,4.329,4.328,4.329s4.328-1.942,4.328-4.329
				S417.547,40.99,415.16,40.99L415.16,40.99z"/>
		</g>
		<g>
			<path fill="#999999" d="M478.124,41.99c1.839,0,3.329,1.49,3.329,3.329s-1.49,3.329-3.329,3.329s-3.329-1.49-3.329-3.329
				S476.285,41.99,478.124,41.99 M478.124,40.99c-2.387,0-4.329,1.942-4.329,4.329s1.942,4.329,4.329,4.329s4.329-1.942,4.329-4.329
				S480.511,40.99,478.124,40.99L478.124,40.99z"/>
		</g>
		<g>
			<path fill="#999999" d="M603.738,41.99c1.838,0,3.328,1.49,3.328,3.329s-1.49,3.329-3.328,3.329s-3.328-1.49-3.328-3.329
				S601.9,41.99,603.738,41.99 M603.738,40.99c-2.387,0-4.328,1.942-4.328,4.329s1.941,4.329,4.328,4.329s4.328-1.942,4.328-4.329
				S606.125,40.99,603.738,40.99L603.738,40.99z"/>
		</g>
		<g>
			<path fill="#999999" d="M666.701,41.99c1.84,0,3.33,1.49,3.33,3.329s-1.49,3.329-3.33,3.329c-1.838,0-3.328-1.49-3.328-3.329
				S664.863,41.99,666.701,41.99 M666.701,40.99c-2.387,0-4.328,1.942-4.328,4.329s1.941,4.329,4.328,4.329
				c2.388,0,4.33-1.942,4.33-4.329S669.089,40.99,666.701,40.99L666.701,40.99z"/>
		</g>
		<g>
			<path fill="#999999" d="M792.316,41.99c1.838,0,3.328,1.49,3.328,3.329s-1.49,3.329-3.328,3.329s-3.328-1.49-3.328-3.329
				S790.479,41.99,792.316,41.99 M792.316,40.99c-2.387,0-4.328,1.942-4.328,4.329s1.941,4.329,4.328,4.329s4.328-1.942,4.328-4.329
				S794.703,40.99,792.316,40.99L792.316,40.99z"/>
		</g>
		<g>
			<path fill="#999999" d="M855.279,41.99c1.84,0,3.33,1.49,3.33,3.329s-1.49,3.329-3.33,3.329c-1.838,0-3.328-1.49-3.328-3.329
				S853.441,41.99,855.279,41.99 M855.279,40.99c-2.387,0-4.328,1.942-4.328,4.329s1.941,4.329,4.328,4.329
				c2.388,0,4.33-1.942,4.33-4.329S857.667,40.99,855.279,40.99L855.279,40.99z"/>
		</g>
		<g>
			<path fill="#999999" d="M-55.682,96.556c1.838,0,3.329,1.49,3.329,3.329s-1.49,3.329-3.329,3.329s-3.329-1.49-3.329-3.329
				S-57.52,96.556-55.682,96.556 M-55.682,95.556c-2.387,0-4.329,1.942-4.329,4.329s1.942,4.329,4.329,4.329
				s4.329-1.942,4.329-4.329S-53.295,95.556-55.682,95.556L-55.682,95.556z"/>
		</g>
		<g>
			<path fill="#999999" d="M7.282,96.556c1.838,0,3.329,1.49,3.329,3.329s-1.49,3.329-3.329,3.329s-3.329-1.49-3.329-3.329
				S5.444,96.556,7.282,96.556 M7.282,95.556c-2.387,0-4.329,1.942-4.329,4.329s1.942,4.329,4.329,4.329s4.329-1.942,4.329-4.329
				S9.669,95.556,7.282,95.556L7.282,95.556z"/>
		</g>
		<g>
			<path fill="#999999" d="M132.896,96.556c1.838,0,3.329,1.49,3.329,3.329s-1.49,3.329-3.329,3.329s-3.329-1.49-3.329-3.329
				S131.058,96.556,132.896,96.556 M132.896,95.556c-2.387,0-4.329,1.942-4.329,4.329s1.942,4.329,4.329,4.329
				s4.329-1.942,4.329-4.329S135.283,95.556,132.896,95.556L132.896,95.556z"/>
		</g>
		<g>
			<path fill="#999999" d="M195.86,96.556c1.838,0,3.329,1.49,3.329,3.329s-1.49,3.329-3.329,3.329s-3.329-1.49-3.329-3.329
				S194.021,96.556,195.86,96.556 M195.86,95.556c-2.387,0-4.329,1.942-4.329,4.329s1.942,4.329,4.329,4.329
				s4.329-1.942,4.329-4.329S198.247,95.556,195.86,95.556L195.86,95.556z"/>
		</g>
		<g>
			<path fill="#999999" d="M321.474,96.556c1.838,0,3.328,1.49,3.328,3.329s-1.49,3.329-3.328,3.329s-3.328-1.49-3.328-3.329
				S319.636,96.556,321.474,96.556 M321.474,95.556c-2.387,0-4.328,1.942-4.328,4.329s1.941,4.329,4.328,4.329
				s4.328-1.942,4.328-4.329S323.86,95.556,321.474,95.556L321.474,95.556z"/>
		</g>
		<g>
			<path fill="#999999" d="M384.438,96.556c1.839,0,3.329,1.49,3.329,3.329s-1.49,3.329-3.329,3.329s-3.329-1.49-3.329-3.329
				S382.599,96.556,384.438,96.556 M384.438,95.556c-2.387,0-4.329,1.942-4.329,4.329s1.942,4.329,4.329,4.329
				s4.329-1.942,4.329-4.329S386.825,95.556,384.438,95.556L384.438,95.556z"/>
		</g>
		<g>
			<path fill="#999999" d="M510.052,96.556c1.838,0,3.328,1.49,3.328,3.329s-1.49,3.329-3.328,3.329s-3.328-1.49-3.328-3.329
				S508.214,96.556,510.052,96.556 M510.052,95.556c-2.387,0-4.328,1.942-4.328,4.329s1.941,4.329,4.328,4.329
				s4.328-1.942,4.328-4.329S512.438,95.556,510.052,95.556L510.052,95.556z"/>
		</g>
		<g>
			<path fill="#999999" d="M573.015,96.556c1.84,0,3.33,1.49,3.33,3.329s-1.49,3.329-3.33,3.329c-1.838,0-3.328-1.49-3.328-3.329
				S571.177,96.556,573.015,96.556 M573.015,95.556c-2.387,0-4.328,1.942-4.328,4.329s1.941,4.329,4.328,4.329
				c2.388,0,4.33-1.942,4.33-4.329S575.402,95.556,573.015,95.556L573.015,95.556z"/>
		</g>
		<g>
			<path fill="#999999" d="M698.63,96.556c1.838,0,3.328,1.49,3.328,3.329s-1.49,3.329-3.328,3.329s-3.328-1.49-3.328-3.329
				S696.792,96.556,698.63,96.556 M698.63,95.556c-2.387,0-4.328,1.942-4.328,4.329s1.941,4.329,4.328,4.329
				s4.328-1.942,4.328-4.329S701.017,95.556,698.63,95.556L698.63,95.556z"/>
		</g>
		<g>
			<path fill="#999999" d="M761.593,96.556c1.84,0,3.33,1.49,3.33,3.329s-1.49,3.329-3.33,3.329c-1.838,0-3.328-1.49-3.328-3.329
				S759.755,96.556,761.593,96.556 M761.593,95.556c-2.387,0-4.328,1.942-4.328,4.329s1.941,4.329,4.328,4.329
				c2.388,0,4.33-1.942,4.33-4.329S763.98,95.556,761.593,95.556L761.593,95.556z"/>
		</g>
		<g>
			<path fill="#999999" d="M38.005,151.451c1.838,0,3.329,1.49,3.329,3.329s-1.49,3.329-3.329,3.329s-3.329-1.49-3.329-3.329
				S36.167,151.451,38.005,151.451 M38.005,150.451c-2.387,0-4.329,1.942-4.329,4.329s1.942,4.329,4.329,4.329
				s4.329-1.942,4.329-4.329S40.392,150.451,38.005,150.451L38.005,150.451z"/>
		</g>
		<g>
			<path fill="#999999" d="M100.969,151.451c1.838,0,3.329,1.49,3.329,3.329s-1.49,3.329-3.329,3.329s-3.329-1.49-3.329-3.329
				S99.13,151.451,100.969,151.451 M100.969,150.451c-2.387,0-4.329,1.942-4.329,4.329s1.942,4.329,4.329,4.329
				s4.329-1.942,4.329-4.329S103.355,150.451,100.969,150.451L100.969,150.451z"/>
		</g>
		<g>
			<path fill="#999999" d="M226.583,151.451c1.838,0,3.329,1.49,3.329,3.329s-1.49,3.329-3.329,3.329s-3.329-1.49-3.329-3.329
				S224.744,151.451,226.583,151.451 M226.583,150.451c-2.387,0-4.329,1.942-4.329,4.329s1.942,4.329,4.329,4.329
				s4.329-1.942,4.329-4.329S228.969,150.451,226.583,150.451L226.583,150.451z"/>
		</g>
		<g>
			<path fill="#999999" d="M289.546,151.451c1.838,0,3.329,1.49,3.329,3.329s-1.49,3.329-3.329,3.329s-3.329-1.49-3.329-3.329
				S287.708,151.451,289.546,151.451 M289.546,150.451c-2.387,0-4.329,1.942-4.329,4.329s1.942,4.329,4.329,4.329
				s4.329-1.942,4.329-4.329S291.933,150.451,289.546,150.451L289.546,150.451z"/>
		</g>
		<g>
			<path fill="#999999" d="M415.16,151.451c1.838,0,3.328,1.49,3.328,3.329s-1.49,3.329-3.328,3.329s-3.328-1.49-3.328-3.329
				S413.322,151.451,415.16,151.451 M415.16,150.451c-2.387,0-4.328,1.942-4.328,4.329s1.941,4.329,4.328,4.329
				s4.328-1.942,4.328-4.329S417.547,150.451,415.16,150.451L415.16,150.451z"/>
		</g>
		<g>
			<path fill="#999999" d="M478.124,151.451c1.839,0,3.329,1.49,3.329,3.329s-1.49,3.329-3.329,3.329s-3.329-1.49-3.329-3.329
				S476.285,151.451,478.124,151.451 M478.124,150.451c-2.387,0-4.329,1.942-4.329,4.329s1.942,4.329,4.329,4.329
				s4.329-1.942,4.329-4.329S480.511,150.451,478.124,150.451L478.124,150.451z"/>
		</g>
		<g>
			<path fill="#999999" d="M603.738,151.451c1.838,0,3.328,1.49,3.328,3.329s-1.49,3.329-3.328,3.329s-3.328-1.49-3.328-3.329
				S601.9,151.451,603.738,151.451 M603.738,150.451c-2.387,0-4.328,1.942-4.328,4.329s1.941,4.329,4.328,4.329
				s4.328-1.942,4.328-4.329S606.125,150.451,603.738,150.451L603.738,150.451z"/>
		</g>
		<g>
			<path fill="#999999" d="M666.701,151.451c1.84,0,3.33,1.49,3.33,3.329s-1.49,3.329-3.33,3.329c-1.838,0-3.328-1.49-3.328-3.329
				S664.863,151.451,666.701,151.451 M666.701,150.451c-2.387,0-4.328,1.942-4.328,4.329s1.941,4.329,4.328,4.329
				c2.388,0,4.33-1.942,4.33-4.329S669.089,150.451,666.701,150.451L666.701,150.451z"/>
		</g>
		<g>
			<path fill="#999999" d="M792.316,151.451c1.838,0,3.328,1.49,3.328,3.329s-1.49,3.329-3.328,3.329s-3.328-1.49-3.328-3.329
				S790.479,151.451,792.316,151.451 M792.316,150.451c-2.387,0-4.328,1.942-4.328,4.329s1.941,4.329,4.328,4.329
				s4.328-1.942,4.328-4.329S794.703,150.451,792.316,150.451L792.316,150.451z"/>
		</g>
		<g>
			<path fill="#999999" d="M855.279,151.451c1.84,0,3.33,1.49,3.33,3.329s-1.49,3.329-3.33,3.329c-1.838,0-3.328-1.49-3.328-3.329
				S853.441,151.451,855.279,151.451 M855.279,150.451c-2.387,0-4.328,1.942-4.328,4.329s1.941,4.329,4.328,4.329
				c2.388,0,4.33-1.942,4.33-4.329S857.667,150.451,855.279,150.451L855.279,150.451z"/>
		</g>
		<g>
			<path fill="#999999" d="M-55.682,206.018c1.838,0,3.329,1.49,3.329,3.329s-1.49,3.329-3.329,3.329s-3.329-1.49-3.329-3.329
				S-57.52,206.018-55.682,206.018 M-55.682,205.018c-2.387,0-4.329,1.942-4.329,4.329s1.942,4.329,4.329,4.329
				s4.329-1.942,4.329-4.329S-53.295,205.018-55.682,205.018L-55.682,205.018z"/>
		</g>
		<g>
			<path fill="#999999" d="M7.282,206.018c1.838,0,3.329,1.49,3.329,3.329s-1.49,3.329-3.329,3.329s-3.329-1.49-3.329-3.329
				S5.444,206.018,7.282,206.018 M7.282,205.018c-2.387,0-4.329,1.942-4.329,4.329s1.942,4.329,4.329,4.329s4.329-1.942,4.329-4.329
				S9.669,205.018,7.282,205.018L7.282,205.018z"/>
		</g>
		<g>
			<path fill="#999999" d="M132.896,206.018c1.838,0,3.329,1.49,3.329,3.329s-1.49,3.329-3.329,3.329s-3.329-1.49-3.329-3.329
				S131.058,206.018,132.896,206.018 M132.896,205.018c-2.387,0-4.329,1.942-4.329,4.329s1.942,4.329,4.329,4.329
				s4.329-1.942,4.329-4.329S135.283,205.018,132.896,205.018L132.896,205.018z"/>
		</g>
		<g>
			<path fill="#999999" d="M195.86,206.018c1.838,0,3.329,1.49,3.329,3.329s-1.49,3.329-3.329,3.329s-3.329-1.49-3.329-3.329
				S194.021,206.018,195.86,206.018 M195.86,205.018c-2.387,0-4.329,1.942-4.329,4.329s1.942,4.329,4.329,4.329
				s4.329-1.942,4.329-4.329S198.247,205.018,195.86,205.018L195.86,205.018z"/>
		</g>
		<g>
			<path fill="#999999" d="M321.474,206.018c1.838,0,3.328,1.49,3.328,3.329s-1.49,3.329-3.328,3.329s-3.328-1.49-3.328-3.329
				S319.636,206.018,321.474,206.018 M321.474,205.018c-2.387,0-4.328,1.942-4.328,4.329s1.941,4.329,4.328,4.329
				s4.328-1.942,4.328-4.329S323.86,205.018,321.474,205.018L321.474,205.018z"/>
		</g>
		<g>
			<path fill="#999999" d="M384.438,206.018c1.839,0,3.329,1.49,3.329,3.329s-1.49,3.329-3.329,3.329s-3.329-1.49-3.329-3.329
				S382.599,206.018,384.438,206.018 M384.438,205.018c-2.387,0-4.329,1.942-4.329,4.329s1.942,4.329,4.329,4.329
				s4.329-1.942,4.329-4.329S386.825,205.018,384.438,205.018L384.438,205.018z"/>
		</g>
		<g>
			<path fill="#999999" d="M510.052,206.018c1.838,0,3.328,1.49,3.328,3.329s-1.49,3.329-3.328,3.329s-3.328-1.49-3.328-3.329
				S508.214,206.018,510.052,206.018 M510.052,205.018c-2.387,0-4.328,1.942-4.328,4.329s1.941,4.329,4.328,4.329
				s4.328-1.942,4.328-4.329S512.438,205.018,510.052,205.018L510.052,205.018z"/>
		</g>
		<g>
			<path fill="#999999" d="M573.015,206.018c1.84,0,3.33,1.49,3.33,3.329s-1.49,3.329-3.33,3.329c-1.838,0-3.328-1.49-3.328-3.329
				S571.177,206.018,573.015,206.018 M573.015,205.018c-2.387,0-4.328,1.942-4.328,4.329s1.941,4.329,4.328,4.329
				c2.388,0,4.33-1.942,4.33-4.329S575.402,205.018,573.015,205.018L573.015,205.018z"/>
		</g>
		<g>
			<path fill="#999999" d="M698.63,206.018c1.838,0,3.328,1.49,3.328,3.329s-1.49,3.329-3.328,3.329s-3.328-1.49-3.328-3.329
				S696.792,206.018,698.63,206.018 M698.63,205.018c-2.387,0-4.328,1.942-4.328,4.329s1.941,4.329,4.328,4.329
				s4.328-1.942,4.328-4.329S701.017,205.018,698.63,205.018L698.63,205.018z"/>
		</g>
		<g>
			<path fill="#999999" d="M761.593,206.018c1.84,0,3.33,1.49,3.33,3.329s-1.49,3.329-3.33,3.329c-1.838,0-3.328-1.49-3.328-3.329
				S759.755,206.018,761.593,206.018 M761.593,205.018c-2.387,0-4.328,1.942-4.328,4.329s1.941,4.329,4.328,4.329
				c2.388,0,4.33-1.942,4.33-4.329S763.98,205.018,761.593,205.018L761.593,205.018z"/>
		</g>
		<g>
			<path fill="#999999" d="M38.005,259.951c1.838,0,3.329,1.49,3.329,3.329s-1.49,3.329-3.329,3.329s-3.329-1.49-3.329-3.329
				S36.167,259.951,38.005,259.951 M38.005,258.951c-2.387,0-4.329,1.942-4.329,4.329s1.942,4.329,4.329,4.329
				s4.329-1.942,4.329-4.329S40.392,258.951,38.005,258.951L38.005,258.951z"/>
		</g>
		<g>
			<path fill="#999999" d="M100.969,259.951c1.838,0,3.329,1.49,3.329,3.329s-1.49,3.329-3.329,3.329s-3.329-1.49-3.329-3.329
				S99.13,259.951,100.969,259.951 M100.969,258.951c-2.387,0-4.329,1.942-4.329,4.329s1.942,4.329,4.329,4.329
				s4.329-1.942,4.329-4.329S103.355,258.951,100.969,258.951L100.969,258.951z"/>
		</g>
		<g>
			<path fill="#999999" d="M226.583,259.951c1.838,0,3.329,1.49,3.329,3.329s-1.49,3.329-3.329,3.329s-3.329-1.49-3.329-3.329
				S224.744,259.951,226.583,259.951 M226.583,258.951c-2.387,0-4.329,1.942-4.329,4.329s1.942,4.329,4.329,4.329
				s4.329-1.942,4.329-4.329S228.969,258.951,226.583,258.951L226.583,258.951z"/>
		</g>
		<g>
			<path fill="#999999" d="M289.546,259.951c1.838,0,3.329,1.49,3.329,3.329s-1.49,3.329-3.329,3.329s-3.329-1.49-3.329-3.329
				S287.708,259.951,289.546,259.951 M289.546,258.951c-2.387,0-4.329,1.942-4.329,4.329s1.942,4.329,4.329,4.329
				s4.329-1.942,4.329-4.329S291.933,258.951,289.546,258.951L289.546,258.951z"/>
		</g>
		<g>
			<path fill="#999999" d="M415.16,259.951c1.838,0,3.328,1.49,3.328,3.329s-1.49,3.329-3.328,3.329s-3.328-1.49-3.328-3.329
				S413.322,259.951,415.16,259.951 M415.16,258.951c-2.387,0-4.328,1.942-4.328,4.329s1.941,4.329,4.328,4.329
				s4.328-1.942,4.328-4.329S417.547,258.951,415.16,258.951L415.16,258.951z"/>
		</g>
		<g>
			<path fill="#999999" d="M478.124,259.951c1.839,0,3.329,1.49,3.329,3.329s-1.49,3.329-3.329,3.329s-3.329-1.49-3.329-3.329
				S476.285,259.951,478.124,259.951 M478.124,258.951c-2.387,0-4.329,1.942-4.329,4.329s1.942,4.329,4.329,4.329
				s4.329-1.942,4.329-4.329S480.511,258.951,478.124,258.951L478.124,258.951z"/>
		</g>
		<g>
			<path fill="#999999" d="M603.738,259.951c1.838,0,3.328,1.49,3.328,3.329s-1.49,3.329-3.328,3.329s-3.328-1.49-3.328-3.329
				S601.9,259.951,603.738,259.951 M603.738,258.951c-2.387,0-4.328,1.942-4.328,4.329s1.941,4.329,4.328,4.329
				s4.328-1.942,4.328-4.329S606.125,258.951,603.738,258.951L603.738,258.951z"/>
		</g>
		<g>
			<path fill="#999999" d="M666.701,259.951c1.84,0,3.33,1.49,3.33,3.329s-1.49,3.329-3.33,3.329c-1.838,0-3.328-1.49-3.328-3.329
				S664.863,259.951,666.701,259.951 M666.701,258.951c-2.387,0-4.328,1.942-4.328,4.329s1.941,4.329,4.328,4.329
				c2.388,0,4.33-1.942,4.33-4.329S669.089,258.951,666.701,258.951L666.701,258.951z"/>
		</g>
		<g>
			<path fill="#999999" d="M792.316,259.951c1.838,0,3.328,1.49,3.328,3.329s-1.49,3.329-3.328,3.329s-3.328-1.49-3.328-3.329
				S790.479,259.951,792.316,259.951 M792.316,258.951c-2.387,0-4.328,1.942-4.328,4.329s1.941,4.329,4.328,4.329
				s4.328-1.942,4.328-4.329S794.703,258.951,792.316,258.951L792.316,258.951z"/>
		</g>
		<g>
			<path fill="#999999" d="M855.279,259.951c1.84,0,3.33,1.49,3.33,3.329s-1.49,3.329-3.33,3.329c-1.838,0-3.328-1.49-3.328-3.329
				S853.441,259.951,855.279,259.951 M855.279,258.951c-2.387,0-4.328,1.942-4.328,4.329s1.941,4.329,4.328,4.329
				c2.388,0,4.33-1.942,4.33-4.329S857.667,258.951,855.279,258.951L855.279,258.951z"/>
		</g>
		<g>
			<path fill="#999999" d="M-55.682,314.518c1.838,0,3.329,1.49,3.329,3.329s-1.49,3.329-3.329,3.329s-3.329-1.49-3.329-3.329
				S-57.52,314.518-55.682,314.518 M-55.682,313.518c-2.387,0-4.329,1.942-4.329,4.329s1.942,4.329,4.329,4.329
				s4.329-1.942,4.329-4.329S-53.295,313.518-55.682,313.518L-55.682,313.518z"/>
		</g>
		<g>
			<path fill="#999999" d="M7.282,314.518c1.838,0,3.329,1.49,3.329,3.329s-1.49,3.329-3.329,3.329s-3.329-1.49-3.329-3.329
				S5.444,314.518,7.282,314.518 M7.282,313.518c-2.387,0-4.329,1.942-4.329,4.329s1.942,4.329,4.329,4.329s4.329-1.942,4.329-4.329
				S9.669,313.518,7.282,313.518L7.282,313.518z"/>
		</g>
		<g>
			<path fill="#999999" d="M132.896,314.518c1.838,0,3.329,1.49,3.329,3.329s-1.49,3.329-3.329,3.329s-3.329-1.49-3.329-3.329
				S131.058,314.518,132.896,314.518 M132.896,313.518c-2.387,0-4.329,1.942-4.329,4.329s1.942,4.329,4.329,4.329
				s4.329-1.942,4.329-4.329S135.283,313.518,132.896,313.518L132.896,313.518z"/>
		</g>
		<g>
			<path fill="#999999" d="M195.86,314.518c1.838,0,3.329,1.49,3.329,3.329s-1.49,3.329-3.329,3.329s-3.329-1.49-3.329-3.329
				S194.021,314.518,195.86,314.518 M195.86,313.518c-2.387,0-4.329,1.942-4.329,4.329s1.942,4.329,4.329,4.329
				s4.329-1.942,4.329-4.329S198.247,313.518,195.86,313.518L195.86,313.518z"/>
		</g>
		<g>
			<path fill="#999999" d="M321.474,314.518c1.838,0,3.328,1.49,3.328,3.329s-1.49,3.329-3.328,3.329s-3.328-1.49-3.328-3.329
				S319.636,314.518,321.474,314.518 M321.474,313.518c-2.387,0-4.328,1.942-4.328,4.329s1.941,4.329,4.328,4.329
				s4.328-1.942,4.328-4.329S323.86,313.518,321.474,313.518L321.474,313.518z"/>
		</g>
		<g>
			<path fill="#999999" d="M384.438,314.518c1.839,0,3.329,1.49,3.329,3.329s-1.49,3.329-3.329,3.329s-3.329-1.49-3.329-3.329
				S382.599,314.518,384.438,314.518 M384.438,313.518c-2.387,0-4.329,1.942-4.329,4.329s1.942,4.329,4.329,4.329
				s4.329-1.942,4.329-4.329S386.825,313.518,384.438,313.518L384.438,313.518z"/>
		</g>
		<g>
			<path fill="#999999" d="M510.052,314.518c1.838,0,3.328,1.49,3.328,3.329s-1.49,3.329-3.328,3.329s-3.328-1.49-3.328-3.329
				S508.214,314.518,510.052,314.518 M510.052,313.518c-2.387,0-4.328,1.942-4.328,4.329s1.941,4.329,4.328,4.329
				s4.328-1.942,4.328-4.329S512.438,313.518,510.052,313.518L510.052,313.518z"/>
		</g>
		<g>
			<path fill="#999999" d="M573.015,314.518c1.84,0,3.33,1.49,3.33,3.329s-1.49,3.329-3.33,3.329c-1.838,0-3.328-1.49-3.328-3.329
				S571.177,314.518,573.015,314.518 M573.015,313.518c-2.387,0-4.328,1.942-4.328,4.329s1.941,4.329,4.328,4.329
				c2.388,0,4.33-1.942,4.33-4.329S575.402,313.518,573.015,313.518L573.015,313.518z"/>
		</g>
		<g>
			<path fill="#999999" d="M698.63,314.518c1.838,0,3.328,1.49,3.328,3.329s-1.49,3.329-3.328,3.329s-3.328-1.49-3.328-3.329
				S696.792,314.518,698.63,314.518 M698.63,313.518c-2.387,0-4.328,1.942-4.328,4.329s1.941,4.329,4.328,4.329
				s4.328-1.942,4.328-4.329S701.017,313.518,698.63,313.518L698.63,313.518z"/>
		</g>
		<g>
			<path fill="#999999" d="M761.593,314.518c1.84,0,3.33,1.49,3.33,3.329s-1.49,3.329-3.33,3.329c-1.838,0-3.328-1.49-3.328-3.329
				S759.755,314.518,761.593,314.518 M761.593,313.518c-2.387,0-4.328,1.942-4.328,4.329s1.941,4.329,4.328,4.329
				c2.388,0,4.33-1.942,4.33-4.329S763.98,313.518,761.593,313.518L761.593,313.518z"/>
		</g>
		<g>
			<path fill="#999999" d="M38.005,368.451c1.838,0,3.329,1.49,3.329,3.329s-1.49,3.329-3.329,3.329s-3.329-1.49-3.329-3.329
				S36.167,368.451,38.005,368.451 M38.005,367.451c-2.387,0-4.329,1.942-4.329,4.329s1.942,4.329,4.329,4.329
				s4.329-1.942,4.329-4.329S40.392,367.451,38.005,367.451L38.005,367.451z"/>
		</g>
		<g>
			<path fill="#999999" d="M100.969,368.451c1.838,0,3.329,1.49,3.329,3.329s-1.49,3.329-3.329,3.329s-3.329-1.49-3.329-3.329
				S99.13,368.451,100.969,368.451 M100.969,367.451c-2.387,0-4.329,1.942-4.329,4.329s1.942,4.329,4.329,4.329
				s4.329-1.942,4.329-4.329S103.355,367.451,100.969,367.451L100.969,367.451z"/>
		</g>
		<g>
			<path fill="#999999" d="M226.583,368.451c1.838,0,3.329,1.49,3.329,3.329s-1.49,3.329-3.329,3.329s-3.329-1.49-3.329-3.329
				S224.744,368.451,226.583,368.451 M226.583,367.451c-2.387,0-4.329,1.942-4.329,4.329s1.942,4.329,4.329,4.329
				s4.329-1.942,4.329-4.329S228.969,367.451,226.583,367.451L226.583,367.451z"/>
		</g>
		<g>
			<path fill="#999999" d="M289.546,368.451c1.838,0,3.329,1.49,3.329,3.329s-1.49,3.329-3.329,3.329s-3.329-1.49-3.329-3.329
				S287.708,368.451,289.546,368.451 M289.546,367.451c-2.387,0-4.329,1.942-4.329,4.329s1.942,4.329,4.329,4.329
				s4.329-1.942,4.329-4.329S291.933,367.451,289.546,367.451L289.546,367.451z"/>
		</g>
		<g>
			<path fill="#999999" d="M415.16,368.451c1.838,0,3.328,1.49,3.328,3.329s-1.49,3.329-3.328,3.329s-3.328-1.49-3.328-3.329
				S413.322,368.451,415.16,368.451 M415.16,367.451c-2.387,0-4.328,1.942-4.328,4.329s1.941,4.329,4.328,4.329
				s4.328-1.942,4.328-4.329S417.547,367.451,415.16,367.451L415.16,367.451z"/>
		</g>
		<g>
			<path fill="#999999" d="M478.124,368.451c1.839,0,3.329,1.49,3.329,3.329s-1.49,3.329-3.329,3.329s-3.329-1.49-3.329-3.329
				S476.285,368.451,478.124,368.451 M478.124,367.451c-2.387,0-4.329,1.942-4.329,4.329s1.942,4.329,4.329,4.329
				s4.329-1.942,4.329-4.329S480.511,367.451,478.124,367.451L478.124,367.451z"/>
		</g>
		<g>
			<path fill="#999999" d="M603.738,368.451c1.838,0,3.328,1.49,3.328,3.329s-1.49,3.329-3.328,3.329s-3.328-1.49-3.328-3.329
				S601.9,368.451,603.738,368.451 M603.738,367.451c-2.387,0-4.328,1.942-4.328,4.329s1.941,4.329,4.328,4.329
				s4.328-1.942,4.328-4.329S606.125,367.451,603.738,367.451L603.738,367.451z"/>
		</g>
		<g>
			<path fill="#999999" d="M666.701,368.451c1.84,0,3.33,1.49,3.33,3.329s-1.49,3.329-3.33,3.329c-1.838,0-3.328-1.49-3.328-3.329
				S664.863,368.451,666.701,368.451 M666.701,367.451c-2.387,0-4.328,1.942-4.328,4.329s1.941,4.329,4.328,4.329
				c2.388,0,4.33-1.942,4.33-4.329S669.089,367.451,666.701,367.451L666.701,367.451z"/>
		</g>
		<g>
			<path fill="#999999" d="M792.316,368.451c1.838,0,3.328,1.49,3.328,3.329s-1.49,3.329-3.328,3.329s-3.328-1.49-3.328-3.329
				S790.479,368.451,792.316,368.451 M792.316,367.451c-2.387,0-4.328,1.942-4.328,4.329s1.941,4.329,4.328,4.329
				s4.328-1.942,4.328-4.329S794.703,367.451,792.316,367.451L792.316,367.451z"/>
		</g>
		<g>
			<path fill="#999999" d="M855.279,368.451c1.84,0,3.33,1.49,3.33,3.329s-1.49,3.329-3.33,3.329c-1.838,0-3.328-1.49-3.328-3.329
				S853.441,368.451,855.279,368.451 M855.279,367.451c-2.387,0-4.328,1.942-4.328,4.329s1.941,4.329,4.328,4.329
				c2.388,0,4.33-1.942,4.33-4.329S857.667,367.451,855.279,367.451L855.279,367.451z"/>
		</g>
		<g>
			<path fill="#999999" d="M-55.682,423.018c1.838,0,3.329,1.49,3.329,3.328c0,1.839-1.49,3.329-3.329,3.329
				s-3.329-1.49-3.329-3.329C-59.01,424.508-57.52,423.018-55.682,423.018 M-55.682,422.018c-2.387,0-4.329,1.941-4.329,4.328
				s1.942,4.329,4.329,4.329s4.329-1.942,4.329-4.329S-53.295,422.018-55.682,422.018L-55.682,422.018z"/>
		</g>
		<g>
			<path fill="#999999" d="M7.282,423.018c1.838,0,3.329,1.49,3.329,3.328c0,1.839-1.49,3.329-3.329,3.329s-3.329-1.49-3.329-3.329
				C3.954,424.508,5.444,423.018,7.282,423.018 M7.282,422.018c-2.387,0-4.329,1.941-4.329,4.328s1.942,4.329,4.329,4.329
				s4.329-1.942,4.329-4.329S9.669,422.018,7.282,422.018L7.282,422.018z"/>
		</g>
		<g>
			<path fill="#999999" d="M132.896,423.018c1.838,0,3.329,1.49,3.329,3.328c0,1.839-1.49,3.329-3.329,3.329
				s-3.329-1.49-3.329-3.329C129.567,424.508,131.058,423.018,132.896,423.018 M132.896,422.018c-2.387,0-4.329,1.941-4.329,4.328
				s1.942,4.329,4.329,4.329s4.329-1.942,4.329-4.329S135.283,422.018,132.896,422.018L132.896,422.018z"/>
		</g>
		<g>
			<path fill="#999999" d="M195.86,423.018c1.838,0,3.329,1.49,3.329,3.328c0,1.839-1.49,3.329-3.329,3.329s-3.329-1.49-3.329-3.329
				C192.531,424.508,194.021,423.018,195.86,423.018 M195.86,422.018c-2.387,0-4.329,1.941-4.329,4.328s1.942,4.329,4.329,4.329
				s4.329-1.942,4.329-4.329S198.247,422.018,195.86,422.018L195.86,422.018z"/>
		</g>
		<g>
			<path fill="#999999" d="M321.474,423.018c1.838,0,3.328,1.49,3.328,3.328c0,1.839-1.49,3.329-3.328,3.329
				s-3.328-1.49-3.328-3.329C318.146,424.508,319.636,423.018,321.474,423.018 M321.474,422.018c-2.387,0-4.328,1.941-4.328,4.328
				s1.941,4.329,4.328,4.329s4.328-1.942,4.328-4.329S323.86,422.018,321.474,422.018L321.474,422.018z"/>
		</g>
		<g>
			<path fill="#999999" d="M384.438,423.018c1.839,0,3.329,1.49,3.329,3.328c0,1.839-1.49,3.329-3.329,3.329
				s-3.329-1.49-3.329-3.329C381.108,424.508,382.599,423.018,384.438,423.018 M384.438,422.018c-2.387,0-4.329,1.941-4.329,4.328
				s1.942,4.329,4.329,4.329s4.329-1.942,4.329-4.329S386.825,422.018,384.438,422.018L384.438,422.018z"/>
		</g>
		<g>
			<path fill="#999999" d="M510.052,423.018c1.838,0,3.328,1.49,3.328,3.328c0,1.839-1.49,3.329-3.328,3.329
				s-3.328-1.49-3.328-3.329C506.724,424.508,508.214,423.018,510.052,423.018 M510.052,422.018c-2.387,0-4.328,1.941-4.328,4.328
				s1.941,4.329,4.328,4.329s4.328-1.942,4.328-4.329S512.438,422.018,510.052,422.018L510.052,422.018z"/>
		</g>
		<g>
			<path fill="#999999" d="M573.015,423.018c1.84,0,3.33,1.49,3.33,3.328c0,1.839-1.49,3.329-3.33,3.329
				c-1.838,0-3.328-1.49-3.328-3.329C569.687,424.508,571.177,423.018,573.015,423.018 M573.015,422.018
				c-2.387,0-4.328,1.941-4.328,4.328s1.941,4.329,4.328,4.329c2.388,0,4.33-1.942,4.33-4.329S575.402,422.018,573.015,422.018
				L573.015,422.018z"/>
		</g>
		<g>
			<path fill="#999999" d="M698.63,423.018c1.838,0,3.328,1.49,3.328,3.328c0,1.839-1.49,3.329-3.328,3.329s-3.328-1.49-3.328-3.329
				C695.302,424.508,696.792,423.018,698.63,423.018 M698.63,422.018c-2.387,0-4.328,1.941-4.328,4.328s1.941,4.329,4.328,4.329
				s4.328-1.942,4.328-4.329S701.017,422.018,698.63,422.018L698.63,422.018z"/>
		</g>
		<g>
			<path fill="#999999" d="M761.593,423.018c1.84,0,3.33,1.49,3.33,3.328c0,1.839-1.49,3.329-3.33,3.329
				c-1.838,0-3.328-1.49-3.328-3.329C758.265,424.508,759.755,423.018,761.593,423.018 M761.593,422.018
				c-2.387,0-4.328,1.941-4.328,4.328s1.941,4.329,4.328,4.329c2.388,0,4.33-1.942,4.33-4.329S763.98,422.018,761.593,422.018
				L761.593,422.018z"/>
		</g>
		<g>
			<path fill="#999999" d="M38.005,476.951c1.838,0,3.329,1.49,3.329,3.328c0,1.839-1.49,3.329-3.329,3.329s-3.329-1.49-3.329-3.329
				C34.676,478.441,36.167,476.951,38.005,476.951 M38.005,475.951c-2.387,0-4.329,1.941-4.329,4.328s1.942,4.329,4.329,4.329
				s4.329-1.942,4.329-4.329S40.392,475.951,38.005,475.951L38.005,475.951z"/>
		</g>
		<g>
			<path fill="#999999" d="M100.969,476.951c1.838,0,3.329,1.49,3.329,3.328c0,1.839-1.49,3.329-3.329,3.329
				s-3.329-1.49-3.329-3.329C97.64,478.441,99.13,476.951,100.969,476.951 M100.969,475.951c-2.387,0-4.329,1.941-4.329,4.328
				s1.942,4.329,4.329,4.329s4.329-1.942,4.329-4.329S103.355,475.951,100.969,475.951L100.969,475.951z"/>
		</g>
		<g>
			<path fill="#999999" d="M226.583,476.951c1.838,0,3.329,1.49,3.329,3.328c0,1.839-1.49,3.329-3.329,3.329
				s-3.329-1.49-3.329-3.329C223.254,478.441,224.744,476.951,226.583,476.951 M226.583,475.951c-2.387,0-4.329,1.941-4.329,4.328
				s1.942,4.329,4.329,4.329s4.329-1.942,4.329-4.329S228.969,475.951,226.583,475.951L226.583,475.951z"/>
		</g>
		<g>
			<path fill="#999999" d="M289.546,476.951c1.838,0,3.329,1.49,3.329,3.328c0,1.839-1.49,3.329-3.329,3.329
				s-3.329-1.49-3.329-3.329C286.218,478.441,287.708,476.951,289.546,476.951 M289.546,475.951c-2.387,0-4.329,1.941-4.329,4.328
				s1.942,4.329,4.329,4.329s4.329-1.942,4.329-4.329S291.933,475.951,289.546,475.951L289.546,475.951z"/>
		</g>
		<g>
			<path fill="#999999" d="M415.16,476.951c1.838,0,3.328,1.49,3.328,3.328c0,1.839-1.49,3.329-3.328,3.329s-3.328-1.49-3.328-3.329
				C411.832,478.441,413.322,476.951,415.16,476.951 M415.16,475.951c-2.387,0-4.328,1.941-4.328,4.328s1.941,4.329,4.328,4.329
				s4.328-1.942,4.328-4.329S417.547,475.951,415.16,475.951L415.16,475.951z"/>
		</g>
		<g>
			<path fill="#999999" d="M478.124,476.951c1.839,0,3.329,1.49,3.329,3.328c0,1.839-1.49,3.329-3.329,3.329
				s-3.329-1.49-3.329-3.329C474.795,478.441,476.285,476.951,478.124,476.951 M478.124,475.951c-2.387,0-4.329,1.941-4.329,4.328
				s1.942,4.329,4.329,4.329s4.329-1.942,4.329-4.329S480.511,475.951,478.124,475.951L478.124,475.951z"/>
		</g>
		<g>
			<path fill="#999999" d="M603.738,476.951c1.838,0,3.328,1.49,3.328,3.328c0,1.839-1.49,3.329-3.328,3.329
				s-3.328-1.49-3.328-3.329C600.41,478.441,601.9,476.951,603.738,476.951 M603.738,475.951c-2.387,0-4.328,1.941-4.328,4.328
				s1.941,4.329,4.328,4.329s4.328-1.942,4.328-4.329S606.125,475.951,603.738,475.951L603.738,475.951z"/>
		</g>
		<g>
			<path fill="#999999" d="M666.701,476.951c1.84,0,3.33,1.49,3.33,3.328c0,1.839-1.49,3.329-3.33,3.329
				c-1.838,0-3.328-1.49-3.328-3.329C663.373,478.441,664.863,476.951,666.701,476.951 M666.701,475.951
				c-2.387,0-4.328,1.941-4.328,4.328s1.941,4.329,4.328,4.329c2.388,0,4.33-1.942,4.33-4.329S669.089,475.951,666.701,475.951
				L666.701,475.951z"/>
		</g>
		<g>
			<path fill="#999999" d="M792.316,476.951c1.838,0,3.328,1.49,3.328,3.328c0,1.839-1.49,3.329-3.328,3.329
				s-3.328-1.49-3.328-3.329C788.988,478.441,790.479,476.951,792.316,476.951 M792.316,475.951c-2.387,0-4.328,1.941-4.328,4.328
				s1.941,4.329,4.328,4.329s4.328-1.942,4.328-4.329S794.703,475.951,792.316,475.951L792.316,475.951z"/>
		</g>
		<g>
			<path fill="#999999" d="M855.279,476.951c1.84,0,3.33,1.49,3.33,3.328c0,1.839-1.49,3.329-3.33,3.329
				c-1.838,0-3.328-1.49-3.328-3.329C851.951,478.441,853.441,476.951,855.279,476.951 M855.279,475.951
				c-2.387,0-4.328,1.941-4.328,4.328s1.941,4.329,4.328,4.329c2.388,0,4.33-1.942,4.33-4.329S857.667,475.951,855.279,475.951
				L855.279,475.951z"/>
		</g>
		<g>
			<path fill="#999999" d="M-55.682,531.518c1.838,0,3.329,1.49,3.329,3.328c0,1.839-1.49,3.329-3.329,3.329
				s-3.329-1.49-3.329-3.329C-59.01,533.008-57.52,531.518-55.682,531.518 M-55.682,530.518c-2.387,0-4.329,1.941-4.329,4.328
				s1.942,4.329,4.329,4.329s4.329-1.942,4.329-4.329S-53.295,530.518-55.682,530.518L-55.682,530.518z"/>
		</g>
		<g>
			<path fill="#999999" d="M7.282,531.518c1.838,0,3.329,1.49,3.329,3.328c0,1.839-1.49,3.329-3.329,3.329s-3.329-1.49-3.329-3.329
				C3.954,533.008,5.444,531.518,7.282,531.518 M7.282,530.518c-2.387,0-4.329,1.941-4.329,4.328s1.942,4.329,4.329,4.329
				s4.329-1.942,4.329-4.329S9.669,530.518,7.282,530.518L7.282,530.518z"/>
		</g>
		<g>
			<path fill="#999999" d="M132.896,531.518c1.838,0,3.329,1.49,3.329,3.328c0,1.839-1.49,3.329-3.329,3.329
				s-3.329-1.49-3.329-3.329C129.567,533.008,131.058,531.518,132.896,531.518 M132.896,530.518c-2.387,0-4.329,1.941-4.329,4.328
				s1.942,4.329,4.329,4.329s4.329-1.942,4.329-4.329S135.283,530.518,132.896,530.518L132.896,530.518z"/>
		</g>
		<g>
			<path fill="#999999" d="M195.86,531.518c1.838,0,3.329,1.49,3.329,3.328c0,1.839-1.49,3.329-3.329,3.329s-3.329-1.49-3.329-3.329
				C192.531,533.008,194.021,531.518,195.86,531.518 M195.86,530.518c-2.387,0-4.329,1.941-4.329,4.328s1.942,4.329,4.329,4.329
				s4.329-1.942,4.329-4.329S198.247,530.518,195.86,530.518L195.86,530.518z"/>
		</g>
		<g>
			<path fill="#999999" d="M321.474,531.518c1.838,0,3.328,1.49,3.328,3.328c0,1.839-1.49,3.329-3.328,3.329
				s-3.328-1.49-3.328-3.329C318.146,533.008,319.636,531.518,321.474,531.518 M321.474,530.518c-2.387,0-4.328,1.941-4.328,4.328
				s1.941,4.329,4.328,4.329s4.328-1.942,4.328-4.329S323.86,530.518,321.474,530.518L321.474,530.518z"/>
		</g>
		<g>
			<path fill="#999999" d="M384.438,531.518c1.839,0,3.329,1.49,3.329,3.328c0,1.839-1.49,3.329-3.329,3.329
				s-3.329-1.49-3.329-3.329C381.108,533.008,382.599,531.518,384.438,531.518 M384.438,530.518c-2.387,0-4.329,1.941-4.329,4.328
				s1.942,4.329,4.329,4.329s4.329-1.942,4.329-4.329S386.825,530.518,384.438,530.518L384.438,530.518z"/>
		</g>
		<g>
			<path fill="#999999" d="M510.052,531.518c1.838,0,3.328,1.49,3.328,3.328c0,1.839-1.49,3.329-3.328,3.329
				s-3.328-1.49-3.328-3.329C506.724,533.008,508.214,531.518,510.052,531.518 M510.052,530.518c-2.387,0-4.328,1.941-4.328,4.328
				s1.941,4.329,4.328,4.329s4.328-1.942,4.328-4.329S512.438,530.518,510.052,530.518L510.052,530.518z"/>
		</g>
		<g>
			<path fill="#999999" d="M573.015,531.518c1.84,0,3.33,1.49,3.33,3.328c0,1.839-1.49,3.329-3.33,3.329
				c-1.838,0-3.328-1.49-3.328-3.329C569.687,533.008,571.177,531.518,573.015,531.518 M573.015,530.518
				c-2.387,0-4.328,1.941-4.328,4.328s1.941,4.329,4.328,4.329c2.388,0,4.33-1.942,4.33-4.329S575.402,530.518,573.015,530.518
				L573.015,530.518z"/>
		</g>
		<g>
			<path fill="#999999" d="M698.63,531.518c1.838,0,3.328,1.49,3.328,3.328c0,1.839-1.49,3.329-3.328,3.329s-3.328-1.49-3.328-3.329
				C695.302,533.008,696.792,531.518,698.63,531.518 M698.63,530.518c-2.387,0-4.328,1.941-4.328,4.328s1.941,4.329,4.328,4.329
				s4.328-1.942,4.328-4.329S701.017,530.518,698.63,530.518L698.63,530.518z"/>
		</g>
		<g>
			<path fill="#999999" d="M761.593,531.518c1.84,0,3.33,1.49,3.33,3.328c0,1.839-1.49,3.329-3.33,3.329
				c-1.838,0-3.328-1.49-3.328-3.329C758.265,533.008,759.755,531.518,761.593,531.518 M761.593,530.518
				c-2.387,0-4.328,1.941-4.328,4.328s1.941,4.329,4.328,4.329c2.388,0,4.33-1.942,4.33-4.329S763.98,530.518,761.593,530.518
				L761.593,530.518z"/>
		</g>
		<g>
			<path fill="#999999" d="M38.005,585.451c1.838,0,3.329,1.49,3.329,3.328c0,1.839-1.49,3.329-3.329,3.329s-3.329-1.49-3.329-3.329
				C34.676,586.941,36.167,585.451,38.005,585.451 M38.005,584.451c-2.387,0-4.329,1.941-4.329,4.328s1.942,4.329,4.329,4.329
				s4.329-1.942,4.329-4.329S40.392,584.451,38.005,584.451L38.005,584.451z"/>
		</g>
		<g>
			<path fill="#999999" d="M100.969,585.451c1.838,0,3.329,1.49,3.329,3.328c0,1.839-1.49,3.329-3.329,3.329
				s-3.329-1.49-3.329-3.329C97.64,586.941,99.13,585.451,100.969,585.451 M100.969,584.451c-2.387,0-4.329,1.941-4.329,4.328
				s1.942,4.329,4.329,4.329s4.329-1.942,4.329-4.329S103.355,584.451,100.969,584.451L100.969,584.451z"/>
		</g>
		<g>
			<path fill="#999999" d="M226.583,585.451c1.838,0,3.329,1.49,3.329,3.328c0,1.839-1.49,3.329-3.329,3.329
				s-3.329-1.49-3.329-3.329C223.254,586.941,224.744,585.451,226.583,585.451 M226.583,584.451c-2.387,0-4.329,1.941-4.329,4.328
				s1.942,4.329,4.329,4.329s4.329-1.942,4.329-4.329S228.969,584.451,226.583,584.451L226.583,584.451z"/>
		</g>
		<g>
			<path fill="#999999" d="M289.546,585.451c1.838,0,3.329,1.49,3.329,3.328c0,1.839-1.49,3.329-3.329,3.329
				s-3.329-1.49-3.329-3.329C286.218,586.941,287.708,585.451,289.546,585.451 M289.546,584.451c-2.387,0-4.329,1.941-4.329,4.328
				s1.942,4.329,4.329,4.329s4.329-1.942,4.329-4.329S291.933,584.451,289.546,584.451L289.546,584.451z"/>
		</g>
		<g>
			<path fill="#999999" d="M415.16,585.451c1.838,0,3.328,1.49,3.328,3.328c0,1.839-1.49,3.329-3.328,3.329s-3.328-1.49-3.328-3.329
				C411.832,586.941,413.322,585.451,415.16,585.451 M415.16,584.451c-2.387,0-4.328,1.941-4.328,4.328s1.941,4.329,4.328,4.329
				s4.328-1.942,4.328-4.329S417.547,584.451,415.16,584.451L415.16,584.451z"/>
		</g>
		<g>
			<path fill="#999999" d="M478.124,585.451c1.839,0,3.329,1.49,3.329,3.328c0,1.839-1.49,3.329-3.329,3.329
				s-3.329-1.49-3.329-3.329C474.795,586.941,476.285,585.451,478.124,585.451 M478.124,584.451c-2.387,0-4.329,1.941-4.329,4.328
				s1.942,4.329,4.329,4.329s4.329-1.942,4.329-4.329S480.511,584.451,478.124,584.451L478.124,584.451z"/>
		</g>
		<g>
			<path fill="#999999" d="M603.738,585.451c1.838,0,3.328,1.49,3.328,3.328c0,1.839-1.49,3.329-3.328,3.329
				s-3.328-1.49-3.328-3.329C600.41,586.941,601.9,585.451,603.738,585.451 M603.738,584.451c-2.387,0-4.328,1.941-4.328,4.328
				s1.941,4.329,4.328,4.329s4.328-1.942,4.328-4.329S606.125,584.451,603.738,584.451L603.738,584.451z"/>
		</g>
		<g>
			<path fill="#999999" d="M666.701,585.451c1.84,0,3.33,1.49,3.33,3.328c0,1.839-1.49,3.329-3.33,3.329
				c-1.838,0-3.328-1.49-3.328-3.329C663.373,586.941,664.863,585.451,666.701,585.451 M666.701,584.451
				c-2.387,0-4.328,1.941-4.328,4.328s1.941,4.329,4.328,4.329c2.388,0,4.33-1.942,4.33-4.329S669.089,584.451,666.701,584.451
				L666.701,584.451z"/>
		</g>
		<g>
			<path fill="#999999" d="M792.316,585.451c1.838,0,3.328,1.49,3.328,3.328c0,1.839-1.49,3.329-3.328,3.329
				s-3.328-1.49-3.328-3.329C788.988,586.941,790.479,585.451,792.316,585.451 M792.316,584.451c-2.387,0-4.328,1.941-4.328,4.328
				s1.941,4.329,4.328,4.329s4.328-1.942,4.328-4.329S794.703,584.451,792.316,584.451L792.316,584.451z"/>
		</g>
		<g>
			<path fill="#999999" d="M855.279,585.451c1.84,0,3.33,1.49,3.33,3.328c0,1.839-1.49,3.329-3.33,3.329
				c-1.838,0-3.328-1.49-3.328-3.329C851.951,586.941,853.441,585.451,855.279,585.451 M855.279,584.451
				c-2.387,0-4.328,1.941-4.328,4.328s1.941,4.329,4.328,4.329c2.388,0,4.33-1.942,4.33-4.329S857.667,584.451,855.279,584.451
				L855.279,584.451z"/>
		</g>
		<g>
			<path fill="#999999" d="M-55.682,640.018c1.838,0,3.329,1.49,3.329,3.328c0,1.839-1.49,3.329-3.329,3.329
				s-3.329-1.49-3.329-3.329C-59.01,641.508-57.52,640.018-55.682,640.018 M-55.682,639.018c-2.387,0-4.329,1.941-4.329,4.328
				s1.942,4.329,4.329,4.329s4.329-1.942,4.329-4.329S-53.295,639.018-55.682,639.018L-55.682,639.018z"/>
		</g>
		<g>
			<path fill="#999999" d="M7.282,640.018c1.838,0,3.329,1.49,3.329,3.328c0,1.839-1.49,3.329-3.329,3.329s-3.329-1.49-3.329-3.329
				C3.954,641.508,5.444,640.018,7.282,640.018 M7.282,639.018c-2.387,0-4.329,1.941-4.329,4.328s1.942,4.329,4.329,4.329
				s4.329-1.942,4.329-4.329S9.669,639.018,7.282,639.018L7.282,639.018z"/>
		</g>
		<g>
			<path fill="#999999" d="M132.896,640.018c1.838,0,3.329,1.49,3.329,3.328c0,1.839-1.49,3.329-3.329,3.329
				s-3.329-1.49-3.329-3.329C129.567,641.508,131.058,640.018,132.896,640.018 M132.896,639.018c-2.387,0-4.329,1.941-4.329,4.328
				s1.942,4.329,4.329,4.329s4.329-1.942,4.329-4.329S135.283,639.018,132.896,639.018L132.896,639.018z"/>
		</g>
		<g>
			<path fill="#999999" d="M195.86,640.018c1.838,0,3.329,1.49,3.329,3.328c0,1.839-1.49,3.329-3.329,3.329s-3.329-1.49-3.329-3.329
				C192.531,641.508,194.021,640.018,195.86,640.018 M195.86,639.018c-2.387,0-4.329,1.941-4.329,4.328s1.942,4.329,4.329,4.329
				s4.329-1.942,4.329-4.329S198.247,639.018,195.86,639.018L195.86,639.018z"/>
		</g>
		<g>
			<path fill="#999999" d="M321.474,640.018c1.838,0,3.328,1.49,3.328,3.328c0,1.839-1.49,3.329-3.328,3.329
				s-3.328-1.49-3.328-3.329C318.146,641.508,319.636,640.018,321.474,640.018 M321.474,639.018c-2.387,0-4.328,1.941-4.328,4.328
				s1.941,4.329,4.328,4.329s4.328-1.942,4.328-4.329S323.86,639.018,321.474,639.018L321.474,639.018z"/>
		</g>
		<g>
			<path fill="#999999" d="M384.438,640.018c1.839,0,3.329,1.49,3.329,3.328c0,1.839-1.49,3.329-3.329,3.329
				s-3.329-1.49-3.329-3.329C381.108,641.508,382.599,640.018,384.438,640.018 M384.438,639.018c-2.387,0-4.329,1.941-4.329,4.328
				s1.942,4.329,4.329,4.329s4.329-1.942,4.329-4.329S386.825,639.018,384.438,639.018L384.438,639.018z"/>
		</g>
		<g>
			<path fill="#999999" d="M510.052,640.018c1.838,0,3.328,1.49,3.328,3.328c0,1.839-1.49,3.329-3.328,3.329
				s-3.328-1.49-3.328-3.329C506.724,641.508,508.214,640.018,510.052,640.018 M510.052,639.018c-2.387,0-4.328,1.941-4.328,4.328
				s1.941,4.329,4.328,4.329s4.328-1.942,4.328-4.329S512.438,639.018,510.052,639.018L510.052,639.018z"/>
		</g>
		<g>
			<path fill="#999999" d="M573.015,640.018c1.84,0,3.33,1.49,3.33,3.328c0,1.839-1.49,3.329-3.33,3.329
				c-1.838,0-3.328-1.49-3.328-3.329C569.687,641.508,571.177,640.018,573.015,640.018 M573.015,639.018
				c-2.387,0-4.328,1.941-4.328,4.328s1.941,4.329,4.328,4.329c2.388,0,4.33-1.942,4.33-4.329S575.402,639.018,573.015,639.018
				L573.015,639.018z"/>
		</g>
		<g>
			<path fill="#999999" d="M698.63,640.018c1.838,0,3.328,1.49,3.328,3.328c0,1.839-1.49,3.329-3.328,3.329s-3.328-1.49-3.328-3.329
				C695.302,641.508,696.792,640.018,698.63,640.018 M698.63,639.018c-2.387,0-4.328,1.941-4.328,4.328s1.941,4.329,4.328,4.329
				s4.328-1.942,4.328-4.329S701.017,639.018,698.63,639.018L698.63,639.018z"/>
		</g>
		<g>
			<path fill="#999999" d="M761.593,640.018c1.84,0,3.33,1.49,3.33,3.328c0,1.839-1.49,3.329-3.33,3.329
				c-1.838,0-3.328-1.49-3.328-3.329C758.265,641.508,759.755,640.018,761.593,640.018 M761.593,639.018
				c-2.387,0-4.328,1.941-4.328,4.328s1.941,4.329,4.328,4.329c2.388,0,4.33-1.942,4.33-4.329S763.98,639.018,761.593,639.018
				L761.593,639.018z"/>
		</g>
		<g>
			<path fill="#999999" d="M38.005,693.951c1.838,0,3.329,1.49,3.329,3.328c0,1.839-1.49,3.329-3.329,3.329s-3.329-1.49-3.329-3.329
				C34.676,695.441,36.167,693.951,38.005,693.951 M38.005,692.951c-2.387,0-4.329,1.941-4.329,4.328s1.942,4.329,4.329,4.329
				s4.329-1.942,4.329-4.329S40.392,692.951,38.005,692.951L38.005,692.951z"/>
		</g>
		<g>
			<path fill="#999999" d="M100.969,693.951c1.838,0,3.329,1.49,3.329,3.328c0,1.839-1.49,3.329-3.329,3.329
				s-3.329-1.49-3.329-3.329C97.64,695.441,99.13,693.951,100.969,693.951 M100.969,692.951c-2.387,0-4.329,1.941-4.329,4.328
				s1.942,4.329,4.329,4.329s4.329-1.942,4.329-4.329S103.355,692.951,100.969,692.951L100.969,692.951z"/>
		</g>
		<g>
			<path fill="#999999" d="M226.583,693.951c1.838,0,3.329,1.49,3.329,3.328c0,1.839-1.49,3.329-3.329,3.329
				s-3.329-1.49-3.329-3.329C223.254,695.441,224.744,693.951,226.583,693.951 M226.583,692.951c-2.387,0-4.329,1.941-4.329,4.328
				s1.942,4.329,4.329,4.329s4.329-1.942,4.329-4.329S228.969,692.951,226.583,692.951L226.583,692.951z"/>
		</g>
		<g>
			<path fill="#999999" d="M289.546,693.951c1.838,0,3.329,1.49,3.329,3.328c0,1.839-1.49,3.329-3.329,3.329
				s-3.329-1.49-3.329-3.329C286.218,695.441,287.708,693.951,289.546,693.951 M289.546,692.951c-2.387,0-4.329,1.941-4.329,4.328
				s1.942,4.329,4.329,4.329s4.329-1.942,4.329-4.329S291.933,692.951,289.546,692.951L289.546,692.951z"/>
		</g>
		<g>
			<path fill="#999999" d="M415.16,693.951c1.838,0,3.328,1.49,3.328,3.328c0,1.839-1.49,3.329-3.328,3.329s-3.328-1.49-3.328-3.329
				C411.832,695.441,413.322,693.951,415.16,693.951 M415.16,692.951c-2.387,0-4.328,1.941-4.328,4.328s1.941,4.329,4.328,4.329
				s4.328-1.942,4.328-4.329S417.547,692.951,415.16,692.951L415.16,692.951z"/>
		</g>
		<g>
			<path fill="#999999" d="M478.124,693.951c1.839,0,3.329,1.49,3.329,3.328c0,1.839-1.49,3.329-3.329,3.329
				s-3.329-1.49-3.329-3.329C474.795,695.441,476.285,693.951,478.124,693.951 M478.124,692.951c-2.387,0-4.329,1.941-4.329,4.328
				s1.942,4.329,4.329,4.329s4.329-1.942,4.329-4.329S480.511,692.951,478.124,692.951L478.124,692.951z"/>
		</g>
		<g>
			<path fill="#999999" d="M603.738,693.951c1.838,0,3.328,1.49,3.328,3.328c0,1.839-1.49,3.329-3.328,3.329
				s-3.328-1.49-3.328-3.329C600.41,695.441,601.9,693.951,603.738,693.951 M603.738,692.951c-2.387,0-4.328,1.941-4.328,4.328
				s1.941,4.329,4.328,4.329s4.328-1.942,4.328-4.329S606.125,692.951,603.738,692.951L603.738,692.951z"/>
		</g>
		<g>
			<path fill="#999999" d="M666.701,693.951c1.84,0,3.33,1.49,3.33,3.328c0,1.839-1.49,3.329-3.33,3.329
				c-1.838,0-3.328-1.49-3.328-3.329C663.373,695.441,664.863,693.951,666.701,693.951 M666.701,692.951
				c-2.387,0-4.328,1.941-4.328,4.328s1.941,4.329,4.328,4.329c2.388,0,4.33-1.942,4.33-4.329S669.089,692.951,666.701,692.951
				L666.701,692.951z"/>
		</g>
		<g>
			<path fill="#999999" d="M792.316,693.951c1.838,0,3.328,1.49,3.328,3.328c0,1.839-1.49,3.329-3.328,3.329
				s-3.328-1.49-3.328-3.329C788.988,695.441,790.479,693.951,792.316,693.951 M792.316,692.951c-2.387,0-4.328,1.941-4.328,4.328
				s1.941,4.329,4.328,4.329s4.328-1.942,4.328-4.329S794.703,692.951,792.316,692.951L792.316,692.951z"/>
		</g>
		<g>
			<path fill="#999999" d="M855.279,693.951c1.84,0,3.33,1.49,3.33,3.328c0,1.839-1.49,3.329-3.33,3.329
				c-1.838,0-3.328-1.49-3.328-3.329C851.951,695.441,853.441,693.951,855.279,693.951 M855.279,692.951
				c-2.387,0-4.328,1.941-4.328,4.328s1.941,4.329,4.328,4.329c2.388,0,4.33-1.942,4.33-4.329S857.667,692.951,855.279,692.951
				L855.279,692.951z"/>
		</g>
		<g>
			<path fill="#999999" d="M-55.682,748.518c1.838,0,3.329,1.49,3.329,3.328c0,1.839-1.49,3.329-3.329,3.329
				s-3.329-1.49-3.329-3.329C-59.01,750.008-57.52,748.518-55.682,748.518 M-55.682,747.518c-2.387,0-4.329,1.941-4.329,4.328
				s1.942,4.329,4.329,4.329s4.329-1.942,4.329-4.329S-53.295,747.518-55.682,747.518L-55.682,747.518z"/>
		</g>
		<g>
			<path fill="#999999" d="M7.282,748.518c1.838,0,3.329,1.49,3.329,3.328c0,1.839-1.49,3.329-3.329,3.329s-3.329-1.49-3.329-3.329
				C3.954,750.008,5.444,748.518,7.282,748.518 M7.282,747.518c-2.387,0-4.329,1.941-4.329,4.328s1.942,4.329,4.329,4.329
				s4.329-1.942,4.329-4.329S9.669,747.518,7.282,747.518L7.282,747.518z"/>
		</g>
		<g>
			<path fill="#999999" d="M132.896,748.518c1.838,0,3.329,1.49,3.329,3.328c0,1.839-1.49,3.329-3.329,3.329
				s-3.329-1.49-3.329-3.329C129.567,750.008,131.058,748.518,132.896,748.518 M132.896,747.518c-2.387,0-4.329,1.941-4.329,4.328
				s1.942,4.329,4.329,4.329s4.329-1.942,4.329-4.329S135.283,747.518,132.896,747.518L132.896,747.518z"/>
		</g>
		<g>
			<path fill="#999999" d="M195.86,748.518c1.838,0,3.329,1.49,3.329,3.328c0,1.839-1.49,3.329-3.329,3.329s-3.329-1.49-3.329-3.329
				C192.531,750.008,194.021,748.518,195.86,748.518 M195.86,747.518c-2.387,0-4.329,1.941-4.329,4.328s1.942,4.329,4.329,4.329
				s4.329-1.942,4.329-4.329S198.247,747.518,195.86,747.518L195.86,747.518z"/>
		</g>
		<g>
			<path fill="#999999" d="M321.474,748.518c1.838,0,3.328,1.49,3.328,3.328c0,1.839-1.49,3.329-3.328,3.329
				s-3.328-1.49-3.328-3.329C318.146,750.008,319.636,748.518,321.474,748.518 M321.474,747.518c-2.387,0-4.328,1.941-4.328,4.328
				s1.941,4.329,4.328,4.329s4.328-1.942,4.328-4.329S323.86,747.518,321.474,747.518L321.474,747.518z"/>
		</g>
		<g>
			<path fill="#999999" d="M384.438,748.518c1.839,0,3.329,1.49,3.329,3.328c0,1.839-1.49,3.329-3.329,3.329
				s-3.329-1.49-3.329-3.329C381.108,750.008,382.599,748.518,384.438,748.518 M384.438,747.518c-2.387,0-4.329,1.941-4.329,4.328
				s1.942,4.329,4.329,4.329s4.329-1.942,4.329-4.329S386.825,747.518,384.438,747.518L384.438,747.518z"/>
		</g>
		<g>
			<path fill="#999999" d="M510.052,748.518c1.838,0,3.328,1.49,3.328,3.328c0,1.839-1.49,3.329-3.328,3.329
				s-3.328-1.49-3.328-3.329C506.724,750.008,508.214,748.518,510.052,748.518 M510.052,747.518c-2.387,0-4.328,1.941-4.328,4.328
				s1.941,4.329,4.328,4.329s4.328-1.942,4.328-4.329S512.438,747.518,510.052,747.518L510.052,747.518z"/>
		</g>
		<g>
			<path fill="#999999" d="M573.015,748.518c1.84,0,3.33,1.49,3.33,3.328c0,1.839-1.49,3.329-3.33,3.329
				c-1.838,0-3.328-1.49-3.328-3.329C569.687,750.008,571.177,748.518,573.015,748.518 M573.015,747.518
				c-2.387,0-4.328,1.941-4.328,4.328s1.941,4.329,4.328,4.329c2.388,0,4.33-1.942,4.33-4.329S575.402,747.518,573.015,747.518
				L573.015,747.518z"/>
		</g>
		<g>
			<path fill="#999999" d="M698.63,748.518c1.838,0,3.328,1.49,3.328,3.328c0,1.839-1.49,3.329-3.328,3.329s-3.328-1.49-3.328-3.329
				C695.302,750.008,696.792,748.518,698.63,748.518 M698.63,747.518c-2.387,0-4.328,1.941-4.328,4.328s1.941,4.329,4.328,4.329
				s4.328-1.942,4.328-4.329S701.017,747.518,698.63,747.518L698.63,747.518z"/>
		</g>
		<g>
			<path fill="#999999" d="M761.593,748.518c1.84,0,3.33,1.49,3.33,3.328c0,1.839-1.49,3.329-3.33,3.329
				c-1.838,0-3.328-1.49-3.328-3.329C758.265,750.008,759.755,748.518,761.593,748.518 M761.593,747.518
				c-2.387,0-4.328,1.941-4.328,4.328s1.941,4.329,4.328,4.329c2.388,0,4.33-1.942,4.33-4.329S763.98,747.518,761.593,747.518
				L761.593,747.518z"/>
		</g>
		<g>
			<path fill="#999999" d="M38.005,802.451c1.838,0,3.329,1.49,3.329,3.328c0,1.839-1.49,3.329-3.329,3.329s-3.329-1.49-3.329-3.329
				C34.676,803.941,36.167,802.451,38.005,802.451 M38.005,801.451c-2.387,0-4.329,1.941-4.329,4.328s1.942,4.329,4.329,4.329
				s4.329-1.942,4.329-4.329S40.392,801.451,38.005,801.451L38.005,801.451z"/>
		</g>
		<g>
			<path fill="#999999" d="M100.969,802.451c1.838,0,3.329,1.49,3.329,3.328c0,1.839-1.49,3.329-3.329,3.329
				s-3.329-1.49-3.329-3.329C97.64,803.941,99.13,802.451,100.969,802.451 M100.969,801.451c-2.387,0-4.329,1.941-4.329,4.328
				s1.942,4.329,4.329,4.329s4.329-1.942,4.329-4.329S103.355,801.451,100.969,801.451L100.969,801.451z"/>
		</g>
		<g>
			<path fill="#999999" d="M226.583,802.451c1.838,0,3.329,1.49,3.329,3.328c0,1.839-1.49,3.329-3.329,3.329
				s-3.329-1.49-3.329-3.329C223.254,803.941,224.744,802.451,226.583,802.451 M226.583,801.451c-2.387,0-4.329,1.941-4.329,4.328
				s1.942,4.329,4.329,4.329s4.329-1.942,4.329-4.329S228.969,801.451,226.583,801.451L226.583,801.451z"/>
		</g>
		<g>
			<path fill="#999999" d="M289.546,802.451c1.838,0,3.329,1.49,3.329,3.328c0,1.839-1.49,3.329-3.329,3.329
				s-3.329-1.49-3.329-3.329C286.218,803.941,287.708,802.451,289.546,802.451 M289.546,801.451c-2.387,0-4.329,1.941-4.329,4.328
				s1.942,4.329,4.329,4.329s4.329-1.942,4.329-4.329S291.933,801.451,289.546,801.451L289.546,801.451z"/>
		</g>
		<g>
			<path fill="#999999" d="M415.16,802.451c1.838,0,3.328,1.49,3.328,3.328c0,1.839-1.49,3.329-3.328,3.329s-3.328-1.49-3.328-3.329
				C411.832,803.941,413.322,802.451,415.16,802.451 M415.16,801.451c-2.387,0-4.328,1.941-4.328,4.328s1.941,4.329,4.328,4.329
				s4.328-1.942,4.328-4.329S417.547,801.451,415.16,801.451L415.16,801.451z"/>
		</g>
		<g>
			<path fill="#999999" d="M478.124,802.451c1.839,0,3.329,1.49,3.329,3.328c0,1.839-1.49,3.329-3.329,3.329
				s-3.329-1.49-3.329-3.329C474.795,803.941,476.285,802.451,478.124,802.451 M478.124,801.451c-2.387,0-4.329,1.941-4.329,4.328
				s1.942,4.329,4.329,4.329s4.329-1.942,4.329-4.329S480.511,801.451,478.124,801.451L478.124,801.451z"/>
		</g>
		<g>
			<path fill="#999999" d="M603.738,802.451c1.838,0,3.328,1.49,3.328,3.328c0,1.839-1.49,3.329-3.328,3.329
				s-3.328-1.49-3.328-3.329C600.41,803.941,601.9,802.451,603.738,802.451 M603.738,801.451c-2.387,0-4.328,1.941-4.328,4.328
				s1.941,4.329,4.328,4.329s4.328-1.942,4.328-4.329S606.125,801.451,603.738,801.451L603.738,801.451z"/>
		</g>
		<g>
			<path fill="#999999" d="M666.701,802.451c1.84,0,3.33,1.49,3.33,3.328c0,1.839-1.49,3.329-3.33,3.329
				c-1.838,0-3.328-1.49-3.328-3.329C663.373,803.941,664.863,802.451,666.701,802.451 M666.701,801.451
				c-2.387,0-4.328,1.941-4.328,4.328s1.941,4.329,4.328,4.329c2.388,0,4.33-1.942,4.33-4.329S669.089,801.451,666.701,801.451
				L666.701,801.451z"/>
		</g>
		<g>
			<path fill="#999999" d="M792.316,802.451c1.838,0,3.328,1.49,3.328,3.328c0,1.839-1.49,3.329-3.328,3.329
				s-3.328-1.49-3.328-3.329C788.988,803.941,790.479,802.451,792.316,802.451 M792.316,801.451c-2.387,0-4.328,1.941-4.328,4.328
				s1.941,4.329,4.328,4.329s4.328-1.942,4.328-4.329S794.703,801.451,792.316,801.451L792.316,801.451z"/>
		</g>
		<g>
			<path fill="#999999" d="M855.279,802.451c1.84,0,3.33,1.49,3.33,3.328c0,1.839-1.49,3.329-3.33,3.329
				c-1.838,0-3.328-1.49-3.328-3.329C851.951,803.941,853.441,802.451,855.279,802.451 M855.279,801.451
				c-2.387,0-4.328,1.941-4.328,4.328s1.941,4.329,4.328,4.329c2.388,0,4.33-1.942,4.33-4.329S857.667,801.451,855.279,801.451
				L855.279,801.451z"/>
		</g>
		<g>
			<path fill="#999999" d="M-55.682,857.018c1.838,0,3.329,1.49,3.329,3.328c0,1.839-1.49,3.329-3.329,3.329
				s-3.329-1.49-3.329-3.329C-59.01,858.508-57.52,857.018-55.682,857.018 M-55.682,856.018c-2.387,0-4.329,1.941-4.329,4.328
				s1.942,4.329,4.329,4.329s4.329-1.942,4.329-4.329S-53.295,856.018-55.682,856.018L-55.682,856.018z"/>
		</g>
		<g>
			<path fill="#999999" d="M7.282,857.018c1.838,0,3.329,1.49,3.329,3.328c0,1.839-1.49,3.329-3.329,3.329s-3.329-1.49-3.329-3.329
				C3.954,858.508,5.444,857.018,7.282,857.018 M7.282,856.018c-2.387,0-4.329,1.941-4.329,4.328s1.942,4.329,4.329,4.329
				s4.329-1.942,4.329-4.329S9.669,856.018,7.282,856.018L7.282,856.018z"/>
		</g>
		<g>
			<path fill="#999999" d="M132.896,857.018c1.838,0,3.329,1.49,3.329,3.328c0,1.839-1.49,3.329-3.329,3.329
				s-3.329-1.49-3.329-3.329C129.567,858.508,131.058,857.018,132.896,857.018 M132.896,856.018c-2.387,0-4.329,1.941-4.329,4.328
				s1.942,4.329,4.329,4.329s4.329-1.942,4.329-4.329S135.283,856.018,132.896,856.018L132.896,856.018z"/>
		</g>
		<g>
			<path fill="#999999" d="M195.86,857.018c1.838,0,3.329,1.49,3.329,3.328c0,1.839-1.49,3.329-3.329,3.329s-3.329-1.49-3.329-3.329
				C192.531,858.508,194.021,857.018,195.86,857.018 M195.86,856.018c-2.387,0-4.329,1.941-4.329,4.328s1.942,4.329,4.329,4.329
				s4.329-1.942,4.329-4.329S198.247,856.018,195.86,856.018L195.86,856.018z"/>
		</g>
		<g>
			<path fill="#999999" d="M321.474,857.018c1.838,0,3.328,1.49,3.328,3.328c0,1.839-1.49,3.329-3.328,3.329
				s-3.328-1.49-3.328-3.329C318.146,858.508,319.636,857.018,321.474,857.018 M321.474,856.018c-2.387,0-4.328,1.941-4.328,4.328
				s1.941,4.329,4.328,4.329s4.328-1.942,4.328-4.329S323.86,856.018,321.474,856.018L321.474,856.018z"/>
		</g>
		<g>
			<path fill="#999999" d="M384.438,857.018c1.839,0,3.329,1.49,3.329,3.328c0,1.839-1.49,3.329-3.329,3.329
				s-3.329-1.49-3.329-3.329C381.108,858.508,382.599,857.018,384.438,857.018 M384.438,856.018c-2.387,0-4.329,1.941-4.329,4.328
				s1.942,4.329,4.329,4.329s4.329-1.942,4.329-4.329S386.825,856.018,384.438,856.018L384.438,856.018z"/>
		</g>
		<g>
			<path fill="#999999" d="M510.052,857.018c1.838,0,3.328,1.49,3.328,3.328c0,1.839-1.49,3.329-3.328,3.329
				s-3.328-1.49-3.328-3.329C506.724,858.508,508.214,857.018,510.052,857.018 M510.052,856.018c-2.387,0-4.328,1.941-4.328,4.328
				s1.941,4.329,4.328,4.329s4.328-1.942,4.328-4.329S512.438,856.018,510.052,856.018L510.052,856.018z"/>
		</g>
		<g>
			<path fill="#999999" d="M573.015,857.018c1.84,0,3.33,1.49,3.33,3.328c0,1.839-1.49,3.329-3.33,3.329
				c-1.838,0-3.328-1.49-3.328-3.329C569.687,858.508,571.177,857.018,573.015,857.018 M573.015,856.018
				c-2.387,0-4.328,1.941-4.328,4.328s1.941,4.329,4.328,4.329c2.388,0,4.33-1.942,4.33-4.329S575.402,856.018,573.015,856.018
				L573.015,856.018z"/>
		</g>
		<g>
			<path fill="#999999" d="M698.63,857.018c1.838,0,3.328,1.49,3.328,3.328c0,1.839-1.49,3.329-3.328,3.329s-3.328-1.49-3.328-3.329
				C695.302,858.508,696.792,857.018,698.63,857.018 M698.63,856.018c-2.387,0-4.328,1.941-4.328,4.328s1.941,4.329,4.328,4.329
				s4.328-1.942,4.328-4.329S701.017,856.018,698.63,856.018L698.63,856.018z"/>
		</g>
		<g>
			<path fill="#999999" d="M761.593,857.018c1.84,0,3.33,1.49,3.33,3.328c0,1.839-1.49,3.329-3.33,3.329
				c-1.838,0-3.328-1.49-3.328-3.329C758.265,858.508,759.755,857.018,761.593,857.018 M761.593,856.018
				c-2.387,0-4.328,1.941-4.328,4.328s1.941,4.329,4.328,4.329c2.388,0,4.33-1.942,4.33-4.329S763.98,856.018,761.593,856.018
				L761.593,856.018z"/>
		</g>
	</g>
</g>
</svg>
